<svg width="327" height="39" viewBox="0 0 327 39" fill="none" xmlns="http://www.w3.org/2000/svg">
<path d="M18.6374 0.380615C14.9513 0.380615 11.3479 1.47369 8.28303 3.52159C5.21812 5.56949 2.82931 8.48026 1.41869 11.8858C0.00807221 15.2913 -0.361006 19.0387 0.358121 22.654C1.07725 26.2693 2.8523 29.5901 5.45878 32.1966C8.06527 34.8031 11.3861 36.5781 15.0014 37.2973C18.6167 38.0164 22.3641 37.6473 25.7696 36.2367C29.1751 34.8261 32.0859 32.4373 34.1338 29.3724C36.1817 26.3075 37.2748 22.7041 37.2748 19.018C37.2748 14.0751 35.3112 9.33458 31.816 5.83939C28.3208 2.34421 23.5803 0.380615 18.6374 0.380615ZM18.4314 21.9306H10.6058V23.4015H18.4314V21.9306ZM21.6456 17.0175H18.4314V21.9306H23.6461L26.3821 28.1381H32.0601L24.183 9.86112H18.4609L21.6456 17.0175ZM18.4609 9.86112V1.41766C28.1473 1.41766 36.1127 9.28744 36.1127 18.8268C36.1413 21.1528 35.7043 23.461 34.8274 25.6156C33.9504 27.7701 32.6513 29.7274 31.0064 31.3723C29.3615 33.0171 27.4042 34.3163 25.2497 35.1932C23.0951 36.0702 20.7869 36.5072 18.4609 36.4786L18.4314 28.2926H6.13401V17.0175H18.4314V15.0978H6.11931V9.86112H18.4609Z" fill="#B2BABD"/>
<path d="M208.873 0.424753H196.48L195.744 1.96195H209.196L208.873 0.424753ZM201.687 11.413L201.753 11.8764H211.241L210.837 9.90526H201.591C201.609 10.3976 201.654 10.8886 201.724 11.3762L201.687 11.413ZM199.951 13.8622C200.032 13.6857 200.128 13.4503 200.231 13.1709H190.199L189.235 15.1273H199.341L199.951 13.8622ZM201.422 9.86113H191.861L190.897 11.8249H200.768C200.988 11.2438 201.216 10.5893 201.503 9.86113H201.422ZM198.745 16.4806H188.573L187.61 18.4296H197.84L198.708 16.4806H198.745ZM209.505 3.28583H195.082L194.119 5.24224H209.888L209.505 3.28583ZM210.197 6.58818H193.45L192.493 8.53726H210.572L210.167 6.58818H210.197ZM214.352 26.4465H183.697L182.733 28.4029H214.705L214.301 26.4465H214.352ZM197.259 19.827H186.926L185.962 21.7835H196.259L197.127 19.827H197.259ZM51.6319 11.2365H62.7599V7.38987H51.6172V4.4479H63.8999V0.446839H44.505V37.9202H63.9073V33.6911H51.6172V30.0136H62.7452V26.1744H51.6172V23.1441H63.9073V14.9287H51.6172L51.6319 11.2365ZM63.0762 19.9815V22.3277H50.7935V26.9319H61.87V29.1384H50.8008V34.4854H63.0762V37.0891H45.3214V19.9815H63.0762ZM96.6661 29.9695H108.074V26.1376H96.6735V23.1441H109.28V19.1504V14.914H96.6735V11.2365H108.081V7.40459H96.6735V4.42583H109.302V0.424753H89.37V37.8981H109.339V33.669H96.6808V29.9916L96.6661 29.9695ZM108.434 34.4854V37.1185H90.1938V19.9815H108.471V22.3277H95.8571V26.9319H107.265V29.1384H95.8571V34.4854H108.434ZM80.5809 7.00006H72.6376V0.424753H65.2827V37.8981H72.6376V27.5571L80.5956 37.9275H87.9506V19.1651V0.424753H80.5956L80.5809 7.00006ZM72.6376 19.1577V11.5895H80.6324V19.1577V29.5797L72.6376 19.1577ZM81.4635 20.0256H87.2003V37.0597H81.0075C80.5515 36.5227 71.8653 25.2918 71.8653 25.2918V37.0597H66.1358V19.9815H72.2625C72.7332 20.5184 81.4635 31.7862 81.4635 31.7862V20.0183V20.0256ZM213.632 23.1441H185.33L184.366 25.1005H214.029L213.624 23.1441H213.632ZM202.084 13.7372L202.364 15.2082H211.925L211.521 13.2517H201.959L202.048 13.7666L202.084 13.7372ZM124.402 22.7176C123.413 22.2106 122.301 21.9939 121.195 22.0924H117.164V27.6086H121.099C121.796 27.5659 122.489 27.475 123.173 27.3364C123.807 27.2362 124.391 26.9314 124.835 26.4685C125.278 26.0226 125.526 25.4199 125.527 24.7916C125.531 24.3789 125.429 23.9719 125.232 23.6091C125.035 23.2463 124.75 22.9395 124.402 22.7176ZM124.218 25.9243C123.892 26.245 123.472 26.4515 123.019 26.5127C122.374 26.6463 121.72 26.7324 121.062 26.7701H117.981V22.9235H121.224C122.168 22.8439 123.116 23.0112 123.975 23.4089C124.21 23.5598 124.401 23.7695 124.53 24.0172C124.659 24.2649 124.721 24.542 124.71 24.821C124.711 25.0259 124.67 25.2287 124.592 25.418C124.514 25.6073 124.399 25.7794 124.254 25.9243H124.218ZM265.469 0.00553917C262.431 -0.0125475 259.423 0.611536 256.643 1.83691L256.378 1.96195H274.516C271.708 0.60211 268.617 -0.0685827 265.498 0.00553917H265.469ZM273.493 17.9295V18.4811H283.327V16.5247H273.427C273.481 16.9909 273.506 17.4601 273.501 17.9295H273.493ZM302.92 3.32996H290.123L289.512 5.28637H303.295L302.942 3.32996H302.92ZM303.509 6.63231H289.093L288.483 8.58138H303.847L303.501 6.63231H303.509ZM304.09 9.92733H288.056L287.446 11.8911H304.428L304.09 9.92733ZM203.018 18.4885H212.646L212.241 16.51H202.636L203.011 18.459L203.018 18.4885ZM267.587 28.4029H280.399C280.77 27.7718 281.107 27.1212 281.407 26.4538H270.184C269.424 27.2401 268.542 27.8983 267.572 28.4029H267.587ZM326.324 9.90526H310.371L309.466 11.8911H326.383L326.324 9.90526ZM326.162 3.28583H313.453L312.541 5.24224H326.221L326.169 3.28583H326.162ZM302.427 0.395349H291.079L290.601 1.93253H302.758L302.427 0.395349ZM317.557 17.0543V18.4885H326.625L326.515 16.51H317.557V17.0248V17.0543ZM283.231 19.8197H273.361C273.274 20.4803 273.131 21.1323 272.934 21.7688H282.885C283.018 21.1289 283.113 20.4743 283.187 19.8197H283.231ZM326.257 6.58084H311.908L310.996 8.52989H326.294L326.243 6.58084H326.257ZM282.128 24.6739C282.304 24.1591 282.466 23.6369 282.606 23.1074H272.456C272.148 23.7932 271.771 24.4462 271.331 25.0564H281.959L282.098 24.6739H282.128ZM260.453 9.91262H247.685C247.317 10.5525 246.949 11.2071 246.677 11.8764H257.79C258.546 11.0817 259.428 10.4181 260.401 9.91262H260.453ZM250.053 0.387987H215.257L214.926 1.92516H249.759L250.053 0.387987ZM273.118 15.1493H283.224C283.167 14.4954 283.076 13.8449 282.952 13.2003H272.375C272.714 13.8163 272.979 14.4706 273.162 15.1493H273.118ZM248.751 6.58084H213.918L213.499 8.52989H248.325L248.737 6.58084H248.751ZM203.658 21.754H213.345L212.977 19.7976H203.276L203.651 21.754H203.658ZM249.45 3.28583H214.632L214.213 5.24224H249.045L249.45 3.28583ZM278.399 4.75681C277.85 4.24308 277.268 3.7664 276.656 3.32996H253.944C253.058 3.90912 252.224 4.56369 251.451 5.28637H278.928L278.406 4.75681H278.399ZM271.051 11.4571L271.434 11.8911H282.65C282.469 11.2221 282.243 10.566 281.973 9.92733H269.102C269.829 10.3375 270.491 10.8531 271.066 11.4571H271.051ZM245.015 18.5032H254.812C254.886 17.8412 255.017 17.1867 255.202 16.5468H245.265C245.147 17.194 245.037 17.8412 244.971 18.5032H245.015ZM248.582 8.58138H281.334C280.96 7.902 280.537 7.25059 280.069 6.63231H250.141L249.722 7.1251C249.325 7.59582 248.987 8.0886 248.612 8.59609L248.582 8.58138ZM256.746 13.2517H246.214L246.096 13.5827C245.912 14.1123 245.75 14.6492 245.596 15.2082H255.665C255.966 14.5205 256.335 13.865 256.768 13.2517H256.746ZM326.125 0.454179H314.806L314.07 1.99136H326.118V0.454179H326.125ZM285.416 18.5179H294.977C295.073 18.1207 295.161 17.7162 295.256 17.3043L295.411 16.5688H285.997L285.386 18.5252L285.416 18.5179ZM305.443 17.7824C305.392 17.3779 305.325 16.966 305.266 16.5762H296.227L296.294 16.966C296.374 17.4882 296.47 18.0104 296.566 18.5326H305.524L305.428 17.7971L305.443 17.7824ZM304.994 15.0022L304.685 13.2665H287.034L286.423 15.2229H295.683C295.742 14.8698 295.808 14.4874 295.867 14.149C295.911 14.5094 295.963 14.8846 296.014 15.2229H305.053L305.009 14.9802L304.994 15.0022ZM300.375 37.854H306.59L307.326 36.3168H300.074L300.375 37.854ZM299.817 34.9929H307.995L308.937 33.0365H299.405L299.794 34.9929H299.817ZM283.319 25.0711H293.065L293.646 23.1221H283.937L283.327 25.0711H283.319ZM281.26 31.6905H291.138L291.719 29.7341H281.907L281.297 31.6905H281.26ZM280.238 34.9929H290.123L290.704 33.0365H280.833L280.23 34.9929H280.238ZM282.297 28.3735H292.079L292.667 26.4244H282.9L282.297 28.3735ZM284.356 21.754H294.021L294.543 20.0183L294.595 19.8123H284.96L284.356 21.7688V21.754ZM299.118 31.6685H309.54L310.474 29.7121H298.75L299.133 31.6685H299.118ZM326.956 36.383H317.557V37.9202H327V36.383H326.956ZM326.743 26.4538H317.498V28.4176H326.772L326.743 26.4538ZM326.816 29.7636H317.557V31.72H326.89L326.839 29.7636H326.816ZM279.311 37.8981H289.24L289.696 36.3609H279.848L279.37 37.8981H279.311ZM326.662 23.1441H317.483V25.0932H326.743L326.691 23.1441H326.662ZM326.905 33.0586H317.557V35.015H326.956L326.912 33.0586H326.905ZM326.574 19.8197H317.468V21.7761H326.618L326.566 19.8197H326.574ZM298.493 28.3882H311.106L312.048 26.4391H298.073L298.456 28.3882H298.493ZM305.789 20.8053L305.671 19.8418H296.808L297.191 21.7982H314.298L315.232 19.8418H306.053C305.958 20.1727 305.862 20.4964 305.796 20.8053H305.789ZM297.845 25.1079H312.724L313.666 23.1515H297.485L297.867 25.1079H297.845ZM306.524 18.3929V18.4958H315.88C316.211 17.8044 316.512 17.1499 316.748 16.5394H307.304C307.002 17.2749 306.752 17.8633 306.568 18.3929H306.524ZM317.637 15.1935H326.463L326.412 13.2444H308.826L307.995 15.164H317.38C317.527 14.7816 317.652 14.4285 317.763 14.0682C317.763 14.4285 317.711 14.8036 317.696 15.164L317.637 15.1935ZM250.23 34.0294C250.634 34.3824 251.046 34.7061 251.465 35.015H274.163C275.039 34.4297 275.868 33.7755 276.641 33.0586H249.259C249.575 33.3969 249.906 33.7279 250.244 34.0294H250.23ZM206.387 36.383L206.71 37.9202H216.713L216.39 36.383H206.387ZM215.029 29.7636H182.079L181.108 31.72H191.839L192.288 30.8521H205.203L205.387 31.72H215.411L215 29.7636H215.029ZM215.72 33.0733H205.681L206.093 35.0297H216.11L215.706 33.0733H215.72ZM219.059 35.0297H232.298L232.71 33.0733H219.471L219.059 35.0297ZM218.456 37.9202H231.695L232.019 36.383H218.751L218.434 37.9202H218.456ZM171.341 23.8796C170.112 22.8948 168.567 22.3926 166.994 22.4675C165.456 22.4072 163.949 22.918 162.765 23.9017C161.654 24.8799 161.088 26.4538 161.088 28.5941C161.088 30.7344 161.647 32.2716 162.75 33.2571C164.007 34.1881 165.529 34.6906 167.093 34.6906C168.657 34.6906 170.18 34.1881 171.436 33.2571C172.51 32.2937 173.054 30.6535 173.054 28.322C173.115 27.4956 172.991 26.6661 172.69 25.8939C172.39 25.1216 171.922 24.4259 171.319 23.8576L171.341 23.8796ZM170.841 32.632C169.738 33.4251 168.414 33.8517 167.056 33.8517C165.698 33.8517 164.375 33.4251 163.272 32.632C162.355 31.8131 161.894 30.4672 161.89 28.5941C161.885 26.7211 162.351 25.3678 163.287 24.5342C164.32 23.6874 165.63 23.2526 166.965 23.3133C168.339 23.2384 169.693 23.6672 170.774 24.5195C171.275 25.015 171.661 25.6142 171.905 26.275C172.149 26.9358 172.245 27.6421 172.186 28.3441C172.186 30.4083 171.738 31.8548 170.841 32.6835V32.632ZM219.736 31.742H232.975L233.379 29.7856H220.141L219.736 31.742ZM179.505 35.037H190.213L191.184 33.088H180.446L179.505 35.037ZM143.694 31.0801H148.033V32.8158C147.316 33.2149 146.559 33.5378 145.775 33.7793C145.103 33.9703 144.407 34.0668 143.708 34.0662C143.057 34.1053 142.404 34.0107 141.791 33.788C141.177 33.5654 140.616 33.2195 140.141 32.7717C139.288 31.9136 138.861 30.4672 138.861 28.4323C138.861 26.5347 139.283 25.1471 140.126 24.2694C140.897 23.5794 141.858 23.1396 142.884 23.0082C143.91 22.8769 144.951 23.0602 145.871 23.5339C146.488 23.9209 146.947 24.5156 147.165 25.2109L153.439 24.2253C153.097 23.1213 152.5 22.1134 151.696 21.2833C150.901 20.4756 149.918 19.8789 148.835 19.5476C147.131 19.1206 145.375 18.9374 143.62 19.0033H142.23V5.02894H154.388V0.424753H134.419V19.1651H140.45C139.558 19.2812 138.684 19.506 137.846 19.8344C136.146 20.522 134.697 21.716 133.698 23.2544C132.735 24.8444 132.248 26.6769 132.293 28.5353C132.255 30.3216 132.699 32.0852 133.58 33.6396C134.436 35.1039 135.72 36.2716 137.258 36.9861C139.18 37.7955 141.256 38.177 143.34 38.104C145.096 38.1309 146.847 37.9232 148.548 37.4862C150.34 36.9362 152.049 36.147 153.63 35.14V27.1746H143.671V31.0801H143.694ZM144.51 28.0278H152.895V34.6472C151.492 35.5094 149.987 36.1938 148.415 36.6845C146.772 37.102 145.08 37.2975 143.385 37.2656C141.419 37.3404 139.461 36.9839 137.648 36.2212C136.264 35.5779 135.111 34.5253 134.345 33.2057C133.541 31.7776 133.134 30.1595 133.169 28.5206C133.124 26.8219 133.571 25.1466 134.456 23.6957C135.367 22.2999 136.684 21.2167 138.229 20.592C139.971 19.9803 141.812 19.7033 143.657 19.7756C145.325 19.7157 146.993 19.8864 148.614 20.2831C149.567 20.5542 150.437 21.06 151.144 21.754C151.609 22.2659 151.985 22.8527 152.255 23.4898L147.584 24.2253C147.275 23.6488 146.821 23.1622 146.268 22.8131C145.192 22.242 143.965 22.0187 142.757 22.1741C141.549 22.3296 140.419 22.8561 139.523 23.681C138.523 24.7181 138.052 26.2847 138.052 28.425C138.052 30.5652 138.56 32.3157 139.567 33.3307C140.119 33.8555 140.773 34.2625 141.487 34.5268C142.201 34.791 142.962 34.9071 143.723 34.8679C144.499 34.8666 145.271 34.7577 146.018 34.5443C146.853 34.2835 147.661 33.941 148.43 33.5219L148.871 33.2866V30.1681H144.532V27.9616L144.51 28.0278ZM179.85 28.4103C179.908 27.0684 179.634 25.7329 179.053 24.522C178.472 23.3111 177.601 22.2619 176.519 21.4672C174.716 20.2084 172.623 19.4288 170.436 19.2019C171.718 19.047 172.974 18.7256 174.172 18.2457C175.857 17.5901 177.317 16.4642 178.379 15.0022C179.414 13.4273 179.929 11.5674 179.85 9.68462C179.909 8.3415 179.636 7.00462 179.055 5.79231C178.473 4.58001 177.602 3.52965 176.519 2.73421C174.312 1.05729 171.159 0.218816 167.06 0.218816C163.049 0.218816 159.926 1.05975 157.69 2.74157C156.592 3.55468 155.711 4.6254 155.125 5.85931C154.539 7.09322 154.266 8.4524 154.329 9.81701C154.269 11.7649 154.882 13.6739 156.064 15.2229C157.21 16.67 158.739 17.7659 160.477 18.3855C161.567 18.7662 162.694 19.03 163.839 19.1725C161.624 19.4067 159.505 20.2015 157.683 21.4819C156.585 22.295 155.704 23.3657 155.118 24.5996C154.532 25.8336 154.258 27.1927 154.321 28.5573C154.262 30.5052 154.875 32.4142 156.057 33.9632C157.201 35.4103 158.731 36.5042 160.47 37.1185C162.712 37.848 165.064 38.1839 167.421 38.1114C169.759 38.1852 172.089 37.7953 174.275 36.964C175.96 36.313 177.421 35.1892 178.482 33.7279C179.516 32.1497 180.03 30.2878 179.953 28.4029L179.85 28.4103ZM163.28 13.899C162.363 13.0801 161.904 11.7342 161.904 9.86113C161.904 7.98808 162.365 6.63478 163.287 5.80122C164.322 4.95609 165.63 4.51913 166.965 4.57294C168.341 4.49825 169.698 4.927 170.782 5.77916C171.283 6.2738 171.669 6.87312 171.912 7.53428C172.155 8.19544 172.249 8.90209 172.186 9.60371C172.186 11.6778 171.738 13.1243 170.841 13.9431C169.737 14.7358 168.412 15.1621 167.053 15.1621C165.694 15.1621 164.369 14.7358 163.265 13.9431L163.28 13.899ZM173.863 36.1844C171.774 36.9726 169.55 37.3449 167.318 37.2803C165.073 37.3444 162.834 37.0235 160.698 36.3315C159.094 35.777 157.682 34.7739 156.631 33.441C155.584 32.0332 155.05 30.3103 155.116 28.5573C155.052 27.3234 155.296 26.093 155.825 24.9763C156.354 23.8596 157.151 22.8915 158.146 22.1586C160.227 20.5993 163.213 19.7976 167.016 19.7976C170.818 19.7976 173.966 20.5773 176.018 22.1291C177 22.8433 177.788 23.7911 178.31 24.8866C178.833 25.9821 179.074 27.1907 179.012 28.4029C179.089 30.1142 178.634 31.8073 177.71 33.2498C176.731 34.5738 175.398 35.5938 173.863 36.1918V36.1844ZM178.063 37.9275H188.757L189.493 36.3904H178.821L178.085 37.9275H178.063ZM223.156 15.2082H236.395L236.807 13.2517H223.553L223.149 15.2082H223.156ZM255.04 23.1883H244.927C244.994 23.8427 245.094 24.4932 245.228 25.1373H255.775C255.457 24.5178 255.21 23.8638 255.04 23.1883ZM257.033 26.9319L256.65 26.4833H245.618C245.811 27.136 246.042 27.777 246.309 28.4029H258.96C258.25 28.0176 257.607 27.521 257.055 26.9319H257.033ZM255.827 37.2288C260.991 38.8855 266.579 38.6244 271.566 36.4933L271.853 36.3536H253.701C254.376 36.6929 255.074 36.983 255.79 37.2215L255.827 37.2288ZM254.665 20.1507V19.8491H244.846V21.8055H254.782C254.715 21.2564 254.681 20.7038 254.679 20.1507H254.665ZM129.359 31.3302C129.013 30.9529 128.62 30.6217 128.189 30.3446C127.59 30.0159 126.949 29.7685 126.284 29.6091C127.181 29.4787 128.056 29.2314 128.888 28.8736C129.801 28.469 130.596 27.8387 131.198 27.0422C131.78 26.2645 132.085 25.3144 132.065 24.343C132.094 23.2302 131.706 22.1468 130.977 21.3054C130.221 20.4399 129.212 19.8329 128.094 19.5696C126.38 19.2098 124.629 19.0542 122.879 19.1063H118.701V12.1559H123.048C126.245 12.1559 128.626 11.6239 130.19 10.5599C130.928 10.0889 131.531 9.43488 131.941 8.66151C132.351 7.88815 132.553 7.02183 132.529 6.14691C132.557 5.31824 132.374 4.49603 131.997 3.75754C131.62 3.01905 131.061 2.38851 130.374 1.92516C128.947 0.932249 126.785 0.454179 123.901 0.454179H110.663V37.9275H117.966V30.3005H118.613C119.239 30.2902 119.856 30.4395 120.408 30.7344C120.97 31.1163 121.44 31.6188 121.783 32.2054L125.711 37.9128H133.941L130.374 32.4996C130.073 32.0787 129.731 31.6894 129.351 31.3375L129.359 31.3302ZM118.687 4.24932H120.893C121.94 4.1447 122.994 4.36012 123.916 4.86713C124.158 5.03005 124.358 5.24858 124.499 5.50447C124.64 5.76036 124.717 6.04619 124.725 6.33812C124.718 6.63876 124.633 6.93239 124.478 7.19026C124.324 7.44813 124.105 7.66137 123.843 7.8091C122.835 8.27846 121.722 8.47865 120.614 8.39015H118.672L118.687 4.24932ZM126.123 37.0744L122.445 31.7347C122.047 31.0415 121.496 30.4479 120.834 29.9989C120.156 29.6358 119.397 29.4511 118.628 29.462H117.157V37.067H111.486V19.9815H122.85C124.521 19.9309 126.192 20.0766 127.829 20.4155C128.786 20.6413 129.651 21.1547 130.308 21.8864C130.834 22.5452 131.136 23.3543 131.172 24.1965C131.208 25.0388 130.975 25.8706 130.506 26.5715C129.982 27.2584 129.29 27.8001 128.498 28.1455C127.741 28.4744 126.945 28.7067 126.13 28.8368L126.078 30.4623C126.683 30.5898 127.267 30.8002 127.814 31.0874C128.177 31.3325 128.506 31.6244 128.792 31.9553C129.131 32.2639 129.436 32.6065 129.704 32.9777L132.418 37.0964L126.123 37.0744ZM222.531 18.4885H235.77L236.174 16.5321H222.862L222.457 18.4885H222.531ZM221.847 21.7908H235.086L235.498 19.8344H222.185L221.773 21.7908H221.847ZM221.156 25.0858H234.343L234.747 23.1368H221.509L221.104 25.0858H221.156ZM223.906 11.847H237.145L237.557 9.8832H224.267L223.862 11.847H223.906ZM246.949 29.7636C247.311 30.443 247.719 31.0967 248.17 31.72H278.009L278.487 31.1757C278.87 30.7148 279.23 30.2441 279.568 29.7636H246.949ZM220.42 28.4176H233.659L234.071 26.4685H220.832L220.42 28.4176Z" fill="#B2BABD"/>
</svg>
