<svg width="280" height="108" viewBox="0 0 280 108" fill="none" xmlns="http://www.w3.org/2000/svg">
<path d="M20.1905 107.894H23.7619V99.2342H20.7857V74.5625H16.6667V99.2342H4.14286V74.5625H0V102.113H20.1905V107.894Z" fill="#B2BABD"/>
<path d="M28.5471 102.113H47.4995V99.2338H32.6662V89.3366H45.6662V86.4579H32.6662V77.4647H47.071V74.5859H28.5471V102.113Z" fill="#B2BABD"/>
<path d="M53.1907 102.113H57.3097V89.337H71.9764V102.113H76.0955V74.5625H71.9764V86.4582H57.3097V74.5625H53.1907V102.113Z" fill="#B2BABD"/>
<path d="M90.0244 102.113H94.1434V77.4647H103.501V74.5859H80.691V77.4647H90.0482V102.113H90.0244Z" fill="#B2BABD"/>
<path d="M108.095 102.113H112.215V92.1916H116.334C119.786 92.1916 122.405 91.692 124.167 90.6927C125.929 89.6935 126.834 88.0281 126.834 85.7441V80.0104C126.834 79.0111 126.643 78.2022 126.286 77.5599C125.881 76.8699 125.405 76.3465 124.857 75.942C124.31 75.5376 123.572 75.2521 122.667 75.0618C121.786 74.8714 120.953 74.7287 120.191 74.6811C119.405 74.6335 118.381 74.5859 117.119 74.5859H108.095V102.113ZM112.167 89.5983V77.1554H116.81C117.595 77.1554 118.238 77.1792 118.714 77.2506C119.191 77.2982 119.786 77.4171 120.5 77.5836C121.238 77.774 121.81 78.1309 122.191 78.6305C122.595 79.1301 122.786 79.7487 122.786 80.51V85.53C122.786 86.9337 122.238 87.9805 121.167 88.6229C120.095 89.2652 118.667 89.5983 116.881 89.5983H112.167Z" fill="#B2BABD"/>
<path d="M132.31 102.113H151.262V99.2338H136.429V89.3366H149.429V86.4579H136.429V77.4647H150.834V74.5859H132.31V102.113Z" fill="#B2BABD"/>
<path d="M156.952 102.113H161.071V89.337H175.738V102.113H179.857V74.5625H175.738V86.4582H161.071V74.5625H156.952V102.113Z" fill="#B2BABD"/>
<path d="M187 102.113H205.952V99.2338H191.119V89.3366H204.119V86.4579H191.119V77.4647H205.523V74.5859H187V102.113Z" fill="#B2BABD"/>
<path d="M211.643 102.113H215.762V92.1916H219.881C223.334 92.1916 225.953 91.692 227.715 90.6927C229.476 89.6935 230.381 88.0281 230.381 85.7441V80.0104C230.381 79.0111 230.191 78.2022 229.834 77.5599C229.429 76.8699 228.953 76.3465 228.405 75.942C227.857 75.5376 227.119 75.2521 226.214 75.0618C225.334 74.8714 224.5 74.7287 223.738 74.6811C222.953 74.6335 221.929 74.5859 220.667 74.5859H211.667V102.113H211.643ZM215.714 89.5983V77.1554H220.357C221.143 77.1554 221.786 77.1792 222.262 77.2506C222.738 77.2982 223.334 77.4171 224.048 77.5836C224.786 77.774 225.357 78.1309 225.738 78.6305C226.143 79.1301 226.334 79.7487 226.334 80.51V85.53C226.334 86.9337 225.786 87.9805 224.715 88.6229C223.643 89.2652 222.215 89.5983 220.429 89.5983H215.714Z" fill="#B2BABD"/>
<path d="M235.857 102.113H239.976V77.4647H252.691V74.5859H235.857V102.113Z" fill="#B2BABD"/>
<path d="M268.309 102.541C271.786 102.541 274.619 101.97 276.762 100.804C278.905 99.6383 280 97.735 280 95.0704V82.0089C280 76.7748 276.095 74.1577 268.309 74.1577C260.595 74.1577 256.762 76.7986 256.762 82.0565V95.0942C256.762 100.043 260.619 102.541 268.309 102.541ZM268.405 99.7811C263.286 99.7811 260.714 98.187 260.714 95.0228V81.9137C260.714 80.058 261.381 78.7257 262.69 77.9643C264 77.203 265.905 76.8224 268.357 76.8224C273.452 76.8224 276 78.5115 276 81.9137V95.0228C276 98.187 273.476 99.7811 268.405 99.7811Z" fill="#B2BABD"/>
<path fill-rule="evenodd" clip-rule="evenodd" d="M160.024 7.11364C159.929 7.04227 159.833 6.9471 159.738 6.89952C159.595 6.78056 159.452 6.6616 159.309 6.56644L159.262 6.63781C158.905 6.47127 158.5 6.3999 158.095 6.3999C156.452 6.3999 155.143 7.7798 155.143 9.46899C155.143 10.6586 155.786 11.6816 156.738 12.1812C162.214 16.8681 165.667 23.839 165.667 31.595C165.667 45.7271 154.19 57.1946 140.024 57.1946C125.857 57.1946 114.381 45.7271 114.381 31.595C114.381 20.0324 122.071 10.2541 132.619 7.06605C147.214 5.11516 124.428 35.2827 129.952 39.7079C132.881 42.1108 137.309 36.1154 139.762 38.0425C142.881 40.7071 132.786 52.8408 135.69 54.4348C138.69 56.0764 155.262 32.6418 151.952 28.8114C149.262 25.7185 143.286 33.5697 140.905 29.9772C138.976 27.0271 151 15.0838 150.452 6.97089C150.357 5.11516 149.69 3.64009 147.786 2.04606C146.905 1.30853 145.571 0.618576 143.19 0.166539C142.143 0.0713736 141.095 0 140.024 0C122.571 0 108.405 14.1321 108.405 31.595C108.405 49.0341 122.548 63.19 140.024 63.19C157.5 63.19 171.667 49.0341 171.667 31.5712C171.667 21.7216 167.119 12.895 160.024 7.11364Z" fill="#B2BABD"/>
</svg>
