<svg width="181" height="62" viewBox="0 0 181 62" fill="none" xmlns="http://www.w3.org/2000/svg">
<path d="M9.8 0H0V11.5H9.8C20.4 11.5 29 20.1 29 30.7C29 41.3 20.4 49.9 9.8 49.9H0V61.4H9.8C26.7 61.4 40.9 49 40.9 30.7C40.8 12.2 26.7 0 9.8 0ZM34.6 49.9V61.4H46.1V49.9H34.6ZM149.8 30.7L172.4 8.1V0H163.9L137.5 26.4V0H34.7V11.5H56.3V61.4H68.4V11.5H90.1C86.1 16.6 83.7 23.1 83.7 30.7C83.7 49 97.8 61.4 114.8 61.4H137.4V35L163.8 61.4H180.5L149.8 30.7ZM125.3 49.9H114.8C106.2 49.9 98.8 44.2 96.4 36.3H113.4V25.1H96.4C98.8 17.2 106.1 11.5 114.8 11.5H125.3V49.9Z" fill="#B2BABD"/>
<path d="M9.8 11.5H0V49.9H9.8C20.4 49.9 29 41.3 29 30.7C28.9 20.1 20.3 11.5 9.8 11.5Z" fill="#E4E9E9"/>
</svg>
