<svg width="292" height="91" viewBox="0 0 292 91" fill="none" xmlns="http://www.w3.org/2000/svg">
<path d="M140.301 48.4932H132.575C133.404 51.5724 133.852 54.7421 133.907 57.9308C133.907 71.4903 124.588 82.5226 113.143 82.5226C101.698 82.5226 92.3876 71.481 92.3876 57.9214C92.4403 54.7343 92.8944 51.5666 93.739 48.4932H86.0035C85.2664 51.5835 84.8664 54.7448 84.8105 57.9214C84.8105 75.6402 97.5042 90.0484 113.106 90.0484C128.707 90.0484 141.401 75.6309 141.401 57.9214C141.375 54.7482 141.006 51.587 140.301 48.4932Z" fill="#D7DBDB"/>
<path d="M98.0819 36.3701C100.268 37.419 102.666 37.9518 105.09 37.9275C108.486 37.7845 111.844 37.1564 115.063 36.0623C120.403 34.5049 124.122 33.591 127.84 35.4095C128.912 37.7596 129.891 40.1283 130.729 42.5064H138.661C132.258 22.6054 116.955 2.32201 116.144 1.24023H110.132C109.322 2.32201 94.0837 22.6893 87.6624 42.4877H95.6029C96.3391 40.4547 97.1686 38.4031 98.0819 36.3701ZM113.152 10.0064C116.984 15.5286 120.515 21.2535 123.73 27.1563C119.89 27.091 116.274 28.1448 113.031 29.096C108.008 30.5509 104.522 31.4275 101.213 29.8421C104.785 22.9895 108.772 16.3621 113.152 9.99705V10.0064Z" fill="#D7DBDB"/>
<path d="M40.1685 35.4377C38.0968 37.931 35.525 39.9612 32.6194 41.3968C29.5805 42.8961 26.2309 43.6566 22.8429 43.6163C16.9907 43.6299 11.3626 41.3658 7.14826 37.3028C5.14574 35.3663 3.54062 33.0569 2.4231 30.5044C1.26736 27.8584 0.679953 24.9989 0.698932 22.1113C0.679953 19.2236 1.26736 16.3642 2.4231 13.7182C3.53078 11.1187 5.14091 8.7638 7.16096 6.7889C9.18101 4.81399 11.5712 3.25799 14.1941 2.21029C16.9366 1.08116 19.8774 0.513549 22.8429 0.540988C26.2338 0.513362 29.5833 1.28658 32.6194 2.7978C35.4604 4.20246 37.9775 6.18437 40.01 8.61703L34.4181 14.3243C32.5947 11.6373 29.8936 9.66892 26.7783 8.75688C23.6629 7.84483 20.3275 8.04597 17.3442 9.32578C15.6723 10.0452 14.149 11.0699 12.852 12.3473C11.5725 13.6233 10.5449 15.1293 9.82306 16.7863C9.08968 18.4772 8.71126 20.3007 8.71126 22.1439C8.71126 23.9871 9.08968 25.8107 9.82306 27.5015C11.2872 30.8574 13.9778 33.5263 17.3442 34.9621C19.069 35.7164 20.9326 36.1008 22.8149 36.0905C25.2071 36.1473 27.5683 35.5405 29.637 34.3373C31.5862 33.1876 33.2571 31.6208 34.53 29.749L40.1685 35.4377Z" fill="#A3A9AB"/>
<path d="M85.0622 22.0835C85.078 24.9718 84.4874 27.8312 83.3287 30.4766C82.2094 33.0363 80.6047 35.3545 78.6036 37.303C76.5768 39.2746 74.204 40.8553 71.6044 41.9659C66.1533 44.2096 60.0374 44.2096 54.5863 41.9659C51.9788 40.8648 49.6013 39.2831 47.5778 37.303C45.6025 35.3574 44.0204 33.0492 42.9179 30.5046C41.7512 27.8614 41.1572 25.001 41.1751 22.1115C41.1432 19.1893 41.7209 16.2926 42.8713 13.6065C43.9914 11.0399 45.603 8.71759 47.6151 6.77076C51.7814 2.77185 57.3315 0.539711 63.1047 0.541209C67.3833 0.523277 71.5745 1.75289 75.1661 4.07977C78.7577 6.40666 81.5941 9.73004 83.3287 13.6438C84.4919 16.3042 85.0826 19.1797 85.0622 22.0835ZM77.0285 22.0835C77.0369 20.2341 76.6657 18.4027 75.9381 16.7026C75.2279 15.0589 74.2163 13.5627 72.9557 12.2916C71.6694 11.0371 70.1622 10.0316 68.5102 9.326C66.7966 8.58298 64.9489 8.19961 63.0814 8.19961C61.2138 8.19961 59.3661 8.58298 57.6526 9.326C54.2944 10.7512 51.621 13.4263 50.1967 16.7865C49.4769 18.4825 49.1059 20.3062 49.1059 22.1488C49.1059 23.9914 49.4769 25.8151 50.1967 27.5111C50.9033 29.1623 51.9151 30.6652 53.179 31.9408C54.4602 33.2135 55.968 34.2351 57.6246 34.953C59.3394 35.6912 61.1866 36.0719 63.0534 36.0719C64.9202 36.0719 66.7674 35.6912 68.4822 34.953C70.1376 34.2328 71.645 33.2114 72.9278 31.9408C74.1917 30.6652 75.2035 29.1623 75.9101 27.5111C76.6536 25.7986 77.0345 23.9506 77.0285 22.0835Z" fill="#A3A9AB"/>
<path d="M217.898 89.6667H209.957L206.5 81.3762H188.391L184.887 89.6667H176.956L194.598 48.1768H200.246L217.898 89.6667ZM203.657 74.7456L197.45 59.8245L191.15 74.7456H203.657Z" fill="#A3A9AB"/>
<path d="M81.4554 82.0661C79.2494 84.774 76.4579 86.9455 73.2912 88.4168C71.8011 89.1045 70.2378 89.6207 68.6313 89.9556C67.0978 90.2705 65.5369 90.4329 63.9714 90.4405C61.003 90.4672 58.0592 89.8996 55.3133 88.7712C50.046 86.6647 45.8067 82.5867 43.4957 77.4032C42.3119 74.7258 41.7145 71.8258 41.7436 68.8982C41.7179 66.0089 42.3089 63.1475 43.4771 60.5051C44.5939 57.9324 46.2167 55.6108 48.2488 53.6787C50.2983 51.7189 52.6979 50.1624 55.3226 49.0904C58.0663 47.9515 61.0103 47.3744 63.9807 47.3932C67.3417 47.3524 70.6651 48.1032 73.6827 49.5847C76.5322 51.0013 79.0679 52.9772 81.1385 55.3946L75.7051 60.99C74.3657 59.0598 72.5652 57.4953 70.4673 56.4391C68.4513 55.4875 66.2469 55.003 64.018 55.0216C62.1146 55.0037 60.2276 55.375 58.4727 56.1127C56.7897 56.8112 55.2532 57.8204 53.9432 59.0876C52.6501 60.3474 51.6122 61.8452 50.8863 63.4986C50.153 65.2042 49.7747 67.0415 49.7747 68.8982C49.7747 70.7549 50.153 72.5922 50.8863 74.2978C52.3596 77.6701 55.0774 80.3428 58.4727 81.7583C60.2211 82.496 62.102 82.8673 63.9993 82.8494C65.8119 82.8578 67.6081 82.5059 69.2837 81.8143C70.9056 81.1311 72.4043 80.1859 73.7199 79.0166V75.0065H65.2389V68.1988H81.4554V82.0661Z" fill="#A3A9AB"/>
<path d="M173.89 89.6573H145.828V48.1953H154.029V81.8797H173.89V89.6573Z" fill="#A3A9AB"/>
<path d="M255.056 89.657H247.162L228.457 60.5516V89.657H220.582V48.1484H229.585L247.162 75.1929V48.1484H255.056V89.657Z" fill="#A3A9AB"/>
<path d="M291.301 55.3574H279.847V89.6573H271.692V55.3574H260.247V48.1953H291.301V55.3574Z" fill="#A3A9AB"/>
<path d="M145.501 37.7228C145.49 37.206 145.581 36.692 145.768 36.2103C145.956 35.7285 146.236 35.2884 146.594 34.9152C146.951 34.5419 147.379 34.2428 147.852 34.0349C148.325 33.827 148.834 33.7143 149.351 33.7034H149.509C150.073 33.6808 150.636 33.777 151.161 33.9859C151.686 34.1947 152.162 34.5115 152.557 34.9158L151.68 35.9229C151.105 35.3363 150.321 35.0011 149.5 34.9904C148.833 35.0854 148.223 35.4179 147.782 35.9267C147.341 36.4355 147.098 37.0865 147.098 37.7601C147.098 38.4337 147.341 39.0847 147.782 39.5935C148.223 40.1024 148.833 40.4348 149.5 40.5298C149.92 40.5232 150.335 40.4304 150.718 40.2572C151.101 40.0839 151.444 39.834 151.727 39.5227L152.612 40.4086C152.22 40.8568 151.733 41.2129 151.187 41.4515C150.641 41.69 150.049 41.8052 149.453 41.7888C148.939 41.7937 148.429 41.6973 147.952 41.505C147.475 41.3127 147.041 41.0283 146.674 40.668C146.307 40.3078 146.015 39.8787 145.814 39.4054C145.612 38.9321 145.506 38.4237 145.501 37.9093V37.7228Z" fill="#A3A9AB"/>
<path d="M154.411 33.834H155.781V37.07H159.509V33.834H160.879V41.6209H159.509V38.3383H155.781V41.6209H154.411V33.834Z" fill="#A3A9AB"/>
<path d="M163.209 33.834H168.978V35.0556H164.579V37.0793H168.484V38.301H164.579V40.3899H169.034V41.6209H163.209V33.834Z" fill="#A3A9AB"/>
<path d="M171.028 33.834H172.482L174.849 37.5176L177.207 33.834H178.661V41.6209H177.301V36.0255L174.849 39.6905H174.803L172.417 36.0535V41.6489H171.075L171.028 33.834Z" fill="#A3A9AB"/>
<path d="M181.112 33.834H182.473V41.6209H181.112V33.834Z" fill="#A3A9AB"/>
<path d="M184.533 37.7221C184.522 37.2053 184.613 36.6913 184.8 36.2096C184.987 35.7278 185.268 35.2878 185.625 34.9145C185.983 34.5412 186.41 34.2421 186.883 34.0342C187.356 33.8263 187.865 33.7136 188.382 33.7027H188.55C189.113 33.6791 189.675 33.7749 190.198 33.9838C190.722 34.1927 191.196 34.5101 191.588 34.9151L190.721 35.9223C190.146 35.3356 189.362 35.0004 188.54 34.9897C187.874 35.0847 187.264 35.4172 186.823 35.926C186.382 36.4348 186.139 37.0858 186.139 37.7594C186.139 38.433 186.382 39.084 186.823 39.5928C187.264 40.1017 187.874 40.4341 188.54 40.5291C188.962 40.5238 189.379 40.4316 189.763 40.2583C190.148 40.0851 190.493 39.8344 190.777 39.522L191.653 40.4079C191.26 40.8562 190.774 41.2122 190.227 41.4508C189.681 41.6893 189.089 41.8045 188.494 41.7881C187.979 41.793 187.467 41.6963 186.989 41.5036C186.512 41.3108 186.076 41.0257 185.708 40.6646C185.341 40.3035 185.047 39.8734 184.846 39.3989C184.644 38.9245 184.538 38.4149 184.533 37.8993V37.7221Z" fill="#A3A9AB"/>
<path d="M196.239 33.7773H197.506L200.926 41.6202H199.445L198.662 39.7551H194.98L194.179 41.6202H192.781L196.239 33.7773ZM198.196 38.5241L196.854 35.4373L195.521 38.5521L198.196 38.5241Z" fill="#A3A9AB"/>
<path d="M202.632 33.834H204.002V40.362H208.075V41.6116H202.632V33.834Z" fill="#A3A9AB"/>
<path d="M213.564 33.834H216.64C218.448 33.834 219.594 34.8691 219.594 36.4545C219.594 38.1984 218.196 39.1123 216.491 39.1123H214.934V41.6209H213.564V33.834ZM216.518 37.8813C217.553 37.8813 218.205 37.3031 218.205 36.4732C218.205 35.6432 217.544 35.0836 216.518 35.0836H214.934V37.8813H216.518Z" fill="#A3A9AB"/>
<path d="M221.355 33.834H222.744V40.362H226.836V41.6116H221.374L221.355 33.834Z" fill="#A3A9AB"/>
<path d="M231.356 33.7773H232.623L236.044 41.6202H234.599L233.807 39.7551H230.135L229.333 41.6202H227.935L231.356 33.7773ZM233.304 38.5241L231.971 35.4373L230.629 38.5521L233.304 38.5241Z" fill="#A3A9AB"/>
<path d="M237.74 33.834H239.007L243.173 39.2149V33.834H244.515V41.6209H243.369L239.091 36.0815V41.6209H237.74V33.834Z" fill="#A3A9AB"/>
<path d="M248.84 35.1023H246.379V33.834H252.689V35.1023H250.219V41.6303H248.84V35.1023Z" fill="#A3A9AB"/>
<path d="M260.9 33.7773H262.167L265.615 41.6202H264.171L263.388 39.7551H259.707L258.905 41.6202H257.507L260.9 33.7773ZM262.857 38.5241L261.515 35.4373L260.182 38.5521L262.857 38.5241Z" fill="#A3A9AB"/>
<path d="M267.293 33.834H268.663V40.362H272.745V41.6116H267.293V33.834Z" fill="#A3A9AB"/>
<path d="M273.742 37.7222C273.731 37.2054 273.822 36.6914 274.009 36.2096C274.197 35.7279 274.477 35.2878 274.835 34.9146C275.192 34.5413 275.62 34.2422 276.093 34.0343C276.566 33.8264 277.075 33.7137 277.591 33.7028H277.731C278.297 33.6789 278.862 33.7744 279.389 33.9833C279.915 34.1922 280.392 34.5097 280.788 34.9152L279.903 35.9223C279.618 35.631 279.279 35.3987 278.905 35.2387C278.531 35.0787 278.129 34.9941 277.722 34.9898C277.055 35.0848 276.446 35.4172 276.004 35.9261C275.563 36.4349 275.32 37.0859 275.32 37.7595C275.32 38.4331 275.563 39.0841 276.004 39.5929C276.446 40.1017 277.055 40.4342 277.722 40.5292C278.144 40.525 278.561 40.4333 278.946 40.26C279.331 40.0866 279.676 39.8354 279.959 39.5221L280.835 40.408C280.446 40.8436 279.967 41.1894 279.431 41.4212C278.895 41.6531 278.315 41.7656 277.731 41.7509C277.216 41.7595 276.704 41.6665 276.225 41.4772C275.745 41.2878 275.308 41.0058 274.938 40.6473C274.567 40.2888 274.271 39.8607 274.066 39.3876C273.861 38.9145 273.751 38.4057 273.742 37.8901V37.7222Z" fill="#A3A9AB"/>
</svg>
