<?xml version="1.0" encoding="utf-8"?><svg xmlns="http://www.w3.org/2000/svg" xmlns:xlink="http://www.w3.org/1999/xlink"><symbol viewBox="0 0 69 63" id="logo" xmlns="http://www.w3.org/2000/svg"><path d="M4.305 57.877l.964-1.587h.867l-1.421 2.15 1.466 2.197h-.86L4.317 59.01l-1.004 1.627H2.45l1.465-2.197-1.421-2.149h.86l.951 1.587zm5.27-1.587h.743v4.346h-.744v-3.169L7.57 60.636h-.743V56.29h.743v3.173l2.004-3.173zm4.273 3.362l1.478-3.362h.928v4.346h-.743v-3.161l-1.406 3.16h-.514l-1.434-3.228v3.229h-.743V56.29h.964l1.47 3.362zm6.25-3.362h.742v4.346h-.743v-3.169l-2.004 3.169h-.743V56.29h.743v3.173l2.004-3.173zm5.092 0v4.346h-.747v-1.691h-1.12l-1.025 1.69h-.803l1.092-1.802a1.315 1.315 0 01-.642-.47 1.287 1.287 0 01-.221-.747c0-.397.148-.715.446-.956.297-.244.694-.367 1.192-.37h1.828zm-2.72 1.334c0 .211.073.383.218.514.144.128.336.194.574.197h1.18v-1.442h-1.067c-.276 0-.496.068-.66.204a.647.647 0 00-.244.527zm5.588 2.405l.257-.317c.289-.375.454-.937.494-1.687l.068-1.735h2.8v3.74h.558v1.883h-.743v-1.277h-3.033v1.277h-.743l.004-1.884h.338zm.88 0h1.995v-3.052h-1.337l-.044 1.036c-.046.865-.25 1.537-.615 2.016zm7.518-3.739v4.346h-.747v-3.731H34.23l-.089 1.626c-.048.747-.174 1.281-.377 1.603-.2.321-.52.488-.96.502h-.297v-.655l.213-.016c.24-.027.413-.166.518-.418.104-.251.171-.717.2-1.397l.081-1.86h2.936zm4.35 0v4.346h-.747v-1.691h-1.121l-1.024 1.69h-.803l1.092-1.802a1.315 1.315 0 01-.643-.47 1.287 1.287 0 01-.22-.747c0-.397.148-.715.445-.956.298-.244.695-.367 1.193-.37h1.828zm-2.72 1.334c0 .211.073.383.217.514.145.128.337.194.575.197h1.18v-1.442H38.99c-.276 0-.495.068-.659.204a.647.647 0 00-.244.527zm9.186-1.334v4.346h-.747v-3.731h-1.478l-.088 1.626c-.049.747-.174 1.281-.378 1.603-.2.321-.52.488-.96.502h-.297v-.655l.213-.016c.24-.027.413-.166.518-.418.104-.251.171-.717.2-1.397l.081-1.86h2.936zm1.84 1.844h1.044c.056-.579.26-1.043.614-1.394.356-.353.805-.53 1.346-.53.567 0 1.032.191 1.393.574.362.383.557.881.587 1.494l.004.233c0 .423-.083.805-.25 1.145-.165.34-.398.602-.698.787-.3.182-.643.273-1.028.273-.56 0-1.018-.182-1.374-.546-.356-.367-.556-.842-.598-1.426h-1.04v1.892h-.744V56.29h.743v1.844zm1.775.377c0 .482.11.869.333 1.16.225.293.526.439.904.439.377 0 .676-.149.895-.446.223-.297.334-.711.334-1.241 0-.474-.113-.86-.338-1.157a1.072 1.072 0 00-.9-.446 1.07 1.07 0 00-.891.438c-.225.292-.337.71-.337 1.253zm3.855 1.518l.257-.317c.29-.375.454-.937.494-1.687l.069-1.735h2.799v3.74h.558v1.883h-.743v-1.277h-3.032v1.277h-.743l.004-1.884h.337zm.88 0h1.996v-3.052H56.28l-.045 1.036c-.045.865-.25 1.537-.614 2.016zm5.76.687c-.59 0-1.069-.193-1.438-.578-.37-.389-.555-.907-.555-1.554v-.137c0-.431.082-.815.245-1.153.166-.34.397-.605.691-.795.297-.193.618-.29.964-.29.565 0 1.004.187 1.317.56.313.371.47.904.47 1.598v.309h-2.944c.011.428.136.775.374 1.04.24.262.546.394.915.394.263 0 .485-.054.667-.161.182-.107.341-.249.478-.426l.454.354c-.364.56-.91.84-1.639.84zm-.093-3.896c-.3 0-.552.11-.755.33-.204.217-.33.522-.378.915h2.177v-.056c-.021-.377-.123-.67-.305-.875-.182-.21-.428-.314-.74-.314zm5.297-.53h.743v4.346h-.743v-3.169l-2.004 3.169h-.743V56.29h.743v3.173l2.004-3.173zm.201-1.582c0 .324-.11.585-.333.783-.22.196-.509.293-.868.293-.358 0-.649-.099-.871-.297a.994.994 0 01-.334-.78h.607c0 .188.05.335.153.443.101.104.25.156.445.156.188 0 .334-.052.438-.156.107-.105.16-.252.16-.442h.603z"/><circle cx="34.02" cy="10.139" r="8.911"/><path d="M32.649 2.426C22.139 4.277 16.427 10.576 13 13.85c6.854 4.113 12.338 5.697 22.848 4.341C48.642 16.541 56.41 6.996 56.41 6.996s-9.97-6.999-23.762-4.57zM14.772 36.802H9.398v14.615H5.783V36.802H.482v-2.928h14.29v2.928zm12.95 10.013c0-.683-.241-1.205-.723-1.567-.482-.37-1.35-.755-2.602-1.156-1.254-.41-2.246-.812-2.976-1.205-1.993-1.077-2.989-2.526-2.989-4.35 0-.947.266-1.79.796-2.53.538-.747 1.305-1.33 2.3-1.747 1.005-.418 2.13-.627 3.375-.627 1.253 0 2.369.23 3.349.687.98.45 1.739 1.089 2.277 1.916.546.827.82 1.767.82 2.82h-3.615c0-.804-.253-1.426-.76-1.868-.505-.45-1.216-.675-2.132-.675-.883 0-1.57.189-2.06.566-.49.37-.735.86-.735 1.47 0 .57.285 1.049.855 1.434.579.386 1.426.747 2.543 1.085 2.056.618 3.554 1.385 4.494 2.3.94.916 1.41 2.057 1.41 3.423 0 1.518-.575 2.71-1.724 3.578-1.148.86-2.694 1.29-4.638 1.29-1.35 0-2.579-.246-3.687-.736-1.108-.498-1.956-1.177-2.542-2.036-.579-.86-.868-1.855-.868-2.988h3.627c0 1.936 1.157 2.904 3.47 2.904.86 0 1.53-.173 2.012-.518.482-.354.723-.844.723-1.47zm11.673-1.579v6.181H35.78V33.874h6.844c1.317 0 2.474.241 3.47.723 1.004.482 1.775 1.17 2.313 2.06.539.884.808 1.892.808 3.025 0 1.719-.59 3.076-1.772 4.072-1.172.988-2.799 1.482-4.88 1.482h-3.168zm0-2.927h3.229c.956 0 1.683-.225 2.18-.675.507-.45.76-1.093.76-1.928 0-.86-.253-1.554-.76-2.084-.505-.53-1.204-.804-2.096-.82h-3.313v5.507zM67.563 49.2c-.65.78-1.57 1.386-2.76 1.82-1.188.425-2.506.638-3.951.638-1.518 0-2.852-.33-4-.988-1.141-.666-2.025-1.63-2.651-2.891-.619-1.262-.936-2.744-.952-4.446V42.14c0-1.751.293-3.265.88-4.543.594-1.285 1.445-2.265 2.554-2.94 1.116-.682 2.422-1.023 3.916-1.023 2.08 0 3.706.498 4.88 1.494 1.172.987 1.867 2.43 2.084 4.325h-3.519c-.16-1.004-.518-1.739-1.072-2.205-.546-.466-1.301-.699-2.265-.699-1.229 0-2.165.462-2.807 1.386-.643.924-.968 2.297-.976 4.12v1.121c0 1.84.35 3.229 1.048 4.169.699.94 1.723 1.41 3.072 1.41 1.358 0 2.326-.29 2.904-.868v-3.024h-3.29V42.2h6.905v7z"/><defs><radialGradient id="apaint0_radial" cx="0" cy="0" r="1" gradientUnits="userSpaceOnUse" gradientTransform="rotate(90 11.94 22.08) scale(9.13907)"><stop stop-color="#fff" stop-opacity=".48"/><stop offset=".26" stop-color="#fff" stop-opacity=".31"/><stop offset=".651" stop-color="#fff" stop-opacity=".15"/><stop offset="1" stop-color="#fff" stop-opacity="0"/></radialGradient></defs></symbol><symbol viewBox="0 0 12 7" id="selectArrow" xmlns="http://www.w3.org/2000/svg"><rect width="8.595" height="1.19" rx=".595" transform="matrix(.69893 -.71519 .69935 .71478 5.161 6.147)"/><rect width="8.565" height="1.19" rx=".595" transform="matrix(-.69935 -.71478 .69893 -.71519 5.99 7)"/></symbol></svg>