<svg width="69" height="63" viewBox="0 0 69 63" fill="none" xmlns="http://www.w3.org/2000/svg">
<path d="M4.30506 57.8766L5.26894 56.2902H6.13644L4.71471 58.4389L6.18062 60.6357H5.32116L4.31711 59.0092L3.31306 60.6357H2.44958L3.91549 58.4389L2.49375 56.2902H3.35322L4.30506 57.8766ZM9.57447 56.2902H10.3175V60.6357H9.57447V57.467L7.57038 60.6357H6.82739V56.2902H7.57038V59.463L9.57447 56.2902ZM13.8479 59.6518L15.3258 56.2902H16.2536V60.6357H15.5106V57.475L14.1049 60.6357H13.5908L12.157 57.4067V60.6357H11.414V56.2902H12.3779L13.8479 59.6518ZM20.0972 56.2902H20.8402V60.6357H20.0972V57.467L18.0931 60.6357H17.3501V56.2902H18.0931V59.463L20.0972 56.2902ZM25.1899 56.2902V60.6357H24.4429V58.9449H23.3224L22.2983 60.6357H21.495L22.5874 58.8325C22.309 58.7307 22.0948 58.5741 21.9448 58.3626C21.7976 58.1484 21.7239 57.8994 21.7239 57.6156C21.7239 57.2193 21.8725 56.9007 22.1697 56.6597C22.4669 56.4161 22.8645 56.2929 23.3625 56.2902H25.1899ZM22.4709 57.6236C22.4709 57.8351 22.5432 58.0065 22.6878 58.1377C22.8324 58.2662 23.0238 58.3318 23.2621 58.3345H24.4429V56.8926H23.3746C23.0988 56.8926 22.8793 56.9609 22.7159 57.0975C22.5526 57.2313 22.4709 57.4067 22.4709 57.6236ZM28.0578 60.0293L28.3148 59.712C28.604 59.3372 28.7687 58.7749 28.8088 58.0252L28.8771 56.2902H31.6764V60.0293H32.2346V61.9129H31.4916V60.6357H28.4594V61.9129H27.7164L27.7204 60.0293H28.0578ZM28.9373 60.0293H30.9334V56.977H29.596L29.5518 58.0132C29.5063 58.878 29.3015 59.55 28.9373 60.0293ZM36.4558 56.2902V60.6357H35.7088V56.9047H34.2308L34.1425 58.5313C34.0943 59.2783 33.9685 59.8124 33.765 60.1337C33.5642 60.455 33.2442 60.6224 32.8051 60.6357H32.5079V59.9811L32.7208 59.965C32.9617 59.9383 33.1344 59.799 33.2388 59.5474C33.3433 59.2957 33.4102 58.8298 33.4397 58.1497L33.52 56.2902H36.4558ZM40.8055 56.2902V60.6357H40.0585V58.9449H38.938L37.9139 60.6357H37.1106L38.203 58.8325C37.9246 58.7307 37.7104 58.5741 37.5604 58.3626C37.4132 58.1484 37.3395 57.8994 37.3395 57.6156C37.3395 57.2193 37.4881 56.9007 37.7853 56.6597C38.0825 56.4161 38.4801 56.2929 38.9782 56.2902H40.8055ZM38.0866 57.6236C38.0866 57.8351 38.1588 58.0065 38.3034 58.1377C38.448 58.2662 38.6395 58.3318 38.8777 58.3345H40.0585V56.8926H38.9902C38.7144 56.8926 38.4949 56.9609 38.3315 57.0975C38.1682 57.2313 38.0866 57.4067 38.0866 57.6236ZM47.2719 56.2902V60.6357H46.5249V56.9047H45.0469L44.9586 58.5313C44.9104 59.2783 44.7846 59.8124 44.5811 60.1337C44.3803 60.455 44.0603 60.6224 43.6212 60.6357H43.324V59.9811L43.5369 59.965C43.7778 59.9383 43.9505 59.799 44.0549 59.5474C44.1594 59.2957 44.2263 58.8298 44.2558 58.1497L44.3361 56.2902H47.2719ZM49.1115 58.1337H50.1557C50.2119 57.5553 50.4168 57.0908 50.7702 56.74C51.1263 56.3866 51.5748 56.2099 52.1156 56.2099C52.6832 56.2099 53.1478 56.4013 53.5092 56.7842C53.8707 57.1671 54.0661 57.6651 54.0956 58.2782L54.0996 58.5112C54.0996 58.9342 54.0166 59.3158 53.8506 59.6558C53.6846 59.9958 53.4517 60.2582 53.1518 60.443C52.8519 60.625 52.5092 60.7161 52.1236 60.7161C51.564 60.7161 51.1062 60.534 50.7501 60.1699C50.394 59.8031 50.1945 59.3278 50.1517 58.7441H49.1115V60.6357H48.3685V56.2902H49.1115V58.1337ZM50.8866 58.5112C50.8866 58.9931 50.9978 59.38 51.22 59.6719C51.4449 59.9637 51.7461 60.1096 52.1236 60.1096C52.5012 60.1096 52.7997 59.961 53.0192 59.6638C53.2415 59.3666 53.3526 58.953 53.3526 58.4228C53.3526 57.9489 53.2401 57.5634 53.0152 57.2662C52.7903 56.969 52.4905 56.8204 52.1156 56.8204C51.7461 56.8204 51.4489 56.9663 51.224 57.2581C50.9991 57.55 50.8866 57.9677 50.8866 58.5112ZM54.7424 60.0293L54.9994 59.712C55.2886 59.3372 55.4532 58.7749 55.4934 58.0252L55.5617 56.2902H58.3609V60.0293H58.9192V61.9129H58.1762V60.6357H55.144V61.9129H54.401L54.405 60.0293H54.7424ZM55.6219 60.0293H57.6179V56.977H56.2806L56.2364 58.0132C56.1909 58.878 55.986 59.55 55.6219 60.0293ZM61.3813 60.7161C60.7922 60.7161 60.313 60.5233 59.9435 60.1377C59.574 59.7495 59.3893 59.2314 59.3893 58.5835V58.4469C59.3893 58.0158 59.4709 57.6316 59.6342 57.2943C59.8002 56.9542 60.0305 56.6892 60.325 56.4991C60.6222 56.3063 60.9435 56.2099 61.2889 56.2099C61.8539 56.2099 62.293 56.396 62.6062 56.7681C62.9195 57.1403 63.0761 57.6731 63.0761 58.3666V58.6758H60.1322C60.143 59.1042 60.2675 59.451 60.5058 59.716C60.7467 59.9784 61.052 60.1096 61.4214 60.1096C61.6838 60.1096 61.9061 60.0561 62.0881 59.949C62.2702 59.8419 62.4295 59.7 62.5661 59.5233L63.0199 59.8767C62.6558 60.4363 62.1096 60.7161 61.3813 60.7161ZM61.2889 56.8204C60.989 56.8204 60.7374 56.9301 60.5339 57.1497C60.3304 57.3666 60.2045 57.6718 60.1563 58.0654H62.3331V58.0092C62.3117 57.6316 62.21 57.3398 62.0279 57.1336C61.8458 56.9248 61.5995 56.8204 61.2889 56.8204ZM66.5864 56.2902H67.3294V60.6357H66.5864V57.467L64.5824 60.6357H63.8394V56.2902H64.5824V59.463L66.5864 56.2902ZM66.7872 54.7078C66.7872 55.0318 66.6761 55.2929 66.4539 55.491C66.2343 55.6865 65.9452 55.7842 65.5864 55.7842C65.2276 55.7842 64.9371 55.6851 64.7149 55.487C64.4927 55.2888 64.3815 55.0291 64.3815 54.7078H64.988C64.988 54.8953 65.0389 55.0425 65.1406 55.1496C65.2423 55.254 65.3909 55.3063 65.5864 55.3063C65.7738 55.3063 65.9197 55.254 66.0242 55.1496C66.1313 55.0452 66.1848 54.8979 66.1848 54.7078H66.7872Z" fill="white"/>
<circle cx="34.0199" cy="10.1391" r="8.9106" fill="url(#paint0_radial)" stroke="white" stroke-width="0.456954"/>
<path d="M32.649 2.42627C22.1391 4.2772 16.4272 10.5753 13 13.8502C19.8543 17.9627 25.3377 19.5473 35.8477 18.1912C48.6424 16.5402 56.4106 6.9958 56.4106 6.9958C56.4106 6.9958 46.4411 -0.00268126 32.649 2.42627Z" stroke="white" stroke-width="2.28477" stroke-linejoin="round"/>
<path d="M14.7716 36.8023H9.3979V51.4172H5.78332V36.8023H0.481943V33.8745H14.7716V36.8023ZM27.7219 46.8147C27.7219 46.1319 27.4809 45.6098 26.9989 45.2484C26.517 44.8789 25.6495 44.4933 24.3965 44.0917C23.1434 43.682 22.1514 43.2804 21.4205 42.8868C19.4284 41.8105 18.4324 40.3607 18.4324 38.5373C18.4324 37.5895 18.6975 36.7461 19.2276 36.0071C19.7658 35.2601 20.5329 34.6777 21.5289 34.2601C22.5329 33.8424 23.6575 33.6335 24.9025 33.6335C26.1555 33.6335 27.272 33.8625 28.252 34.3203C29.232 34.7701 29.991 35.4087 30.5292 36.236C31.0754 37.0634 31.3485 38.0031 31.3485 39.0554H27.7339C27.7339 38.2522 27.4809 37.6296 26.9749 37.1879C26.4688 36.738 25.7579 36.5131 24.8423 36.5131C23.9587 36.5131 23.2719 36.7019 22.7819 37.0794C22.292 37.4489 22.047 37.9389 22.047 38.5493C22.047 39.1196 22.3321 39.5976 22.9024 39.9831C23.4808 40.3687 24.3282 40.7301 25.4447 41.0675C27.501 41.686 28.999 42.4531 29.9388 43.3688C30.8786 44.2845 31.3485 45.4251 31.3485 46.7906C31.3485 48.3087 30.7742 49.5015 29.6255 50.369C28.4769 51.2285 26.9307 51.6582 24.9868 51.6582C23.6374 51.6582 22.4084 51.4132 21.3 50.9232C20.1915 50.4252 19.3441 49.7465 18.7577 48.887C18.1794 48.0276 17.8902 47.0316 17.8902 45.899H21.5168C21.5168 47.8348 22.6735 48.8027 24.9868 48.8027C25.8463 48.8027 26.517 48.63 26.9989 48.2846C27.4809 47.9312 27.7219 47.4412 27.7219 46.8147ZM39.395 45.2363V51.4172H35.7804V33.8745H42.624C43.9413 33.8745 45.098 34.1155 46.094 34.5974C47.0981 35.0794 47.8692 35.7661 48.4074 36.6577C48.9455 37.5413 49.2146 38.5493 49.2146 39.6819C49.2146 41.4008 48.6242 42.7583 47.4435 43.7543C46.2707 44.7423 44.6442 45.2363 42.5638 45.2363H39.395ZM39.395 42.3085H42.624C43.5799 42.3085 44.3068 42.0836 44.8048 41.6338C45.3109 41.184 45.5639 40.5414 45.5639 39.706C45.5639 38.8465 45.3109 38.1517 44.8048 37.6216C44.2988 37.0915 43.6 36.8184 42.7084 36.8023H39.395V42.3085ZM67.5627 49.2003C66.9121 49.9794 65.9923 50.5859 64.8035 51.0196C63.6148 51.4453 62.2974 51.6582 60.8516 51.6582C59.3335 51.6582 58.0001 51.3289 56.8515 50.6702C55.7109 50.0035 54.8273 49.0396 54.2008 47.7786C53.5823 46.5175 53.265 45.0355 53.249 43.3326V42.1398C53.249 40.3888 53.5421 38.8747 54.1285 37.5975C54.7229 36.3123 55.5743 35.3324 56.6828 34.6577C57.7993 33.9749 59.1046 33.6335 60.5986 33.6335C62.679 33.6335 64.3055 34.1315 65.4783 35.1276C66.651 36.1155 67.3458 37.5573 67.5627 39.453H64.0445C63.8838 38.4489 63.5264 37.714 62.9722 37.2481C62.426 36.7822 61.6709 36.5493 60.707 36.5493C59.4781 36.5493 58.5423 37.0111 57.8997 37.9349C57.2571 38.8586 56.9318 40.2321 56.9238 42.0555V43.176C56.9238 45.0154 57.2732 46.405 57.972 47.3448C58.6708 48.2846 59.6949 48.7545 61.0444 48.7545C62.4019 48.7545 63.3698 48.4653 63.9481 47.887V44.8628H60.6588V42.2001H67.5627V49.2003Z" fill="white"/>
<defs>
<radialGradient id="paint0_radial" cx="0" cy="0" r="1" gradientUnits="userSpaceOnUse" gradientTransform="translate(34.0199 10.1391) rotate(90) scale(9.13907)">
<stop stop-color="white" stop-opacity="0.48"/>
<stop offset="0.260417" stop-color="white" stop-opacity="0.31"/>
<stop offset="0.651042" stop-color="white" stop-opacity="0.15"/>
<stop offset="1" stop-color="white" stop-opacity="0"/>
</radialGradient>
</defs>
</svg>
