<svg width="103" height="78" viewBox="0 0 103 78" fill="none" xmlns="http://www.w3.org/2000/svg">
<path d="M101.399 52.9217C102.089 52.9217 102.648 52.3625 102.648 51.6728C102.648 50.983 102.089 50.4238 101.399 50.4238C100.71 50.4238 100.15 50.983 100.15 51.6728C100.15 52.3625 100.71 52.9217 101.399 52.9217Z" fill="#699DAA"/>
<path d="M102.282 29.934C102.05 29.7017 101.728 29.568 101.399 29.568H96.4036C96.0751 29.568 95.7529 29.7017 95.5205 29.934C95.2882 30.1663 95.1546 30.4885 95.1546 30.817V34.314H84.2336C83.6006 27.3217 77.707 21.8242 70.5526 21.8242C63.3981 21.8242 57.5044 27.3217 56.8715 34.314H46.1961V30.817C46.1961 30.4885 46.0624 30.1663 45.8301 29.934C45.5978 29.7017 45.2756 29.568 44.9471 29.568H39.9513C39.6229 29.568 39.3006 29.7017 39.0683 29.934C38.836 30.1663 38.7024 30.4885 38.7024 30.817V75.7785C38.7024 76.107 38.836 76.4292 39.0683 76.6616C39.3006 76.8939 39.6229 77.0275 39.9513 77.0275H101.399C101.728 77.0275 102.05 76.8939 102.282 76.6616C102.515 76.4292 102.648 76.107 102.648 75.7785V57.2931C102.648 56.6049 102.087 56.0441 101.399 56.0441C100.711 56.0441 100.15 56.6049 100.15 57.2931V74.5296H41.2003V32.0659H43.6982V66.7236C43.6982 67.4134 44.2573 67.9103 44.9471 67.9103H96.4036C97.0933 67.9103 97.6525 67.4134 97.6525 66.7236V32.0659H100.15V46.0527C100.15 46.7409 100.711 47.3017 101.399 47.3017C102.087 47.3017 102.648 46.7409 102.648 46.0527V30.817C102.648 30.4885 102.515 30.1663 102.282 29.934ZM70.5526 24.3221C76.7506 24.3221 81.793 29.3645 81.793 35.5623C81.793 41.7602 76.7506 46.8026 70.5526 46.8026C64.3546 46.8026 59.3121 41.7602 59.3121 35.5623C59.3121 29.3645 64.3546 24.3221 70.5526 24.3221ZM82.7875 41.8076H84.9133V52.4234H77.0449V47.6666C79.5021 46.3433 81.513 44.2942 82.7875 41.8076ZM74.5471 48.7075V52.4236H66.6787V48.7436C67.9079 49.1054 69.2077 49.3005 70.5526 49.3005C71.9414 49.3003 73.2824 49.0925 74.5471 48.7075ZM64.1808 47.7304V52.4234H56.4374V41.8076H58.3175C59.6128 44.3348 61.6688 46.4098 64.1808 47.7304ZM48.6939 53.6099V65.4124H46.1961V36.8118H56.8715C56.9492 37.6693 57.1051 38.5045 57.3336 39.3097H55.2509C54.5611 39.3097 53.9395 39.8065 53.9395 40.4963V52.4234H49.9429C49.2531 52.4236 48.6939 52.9201 48.6939 53.6099ZM59.0602 65.4124H51.1918V54.9215H59.0602V65.4124ZM69.4264 65.4124H61.558V54.9215H69.4264V65.4124ZM79.7926 65.4124H71.9243V54.9215H79.7926V65.4124ZM90.1588 65.4124H82.2905V54.9215H90.1588V65.4124ZM95.1546 65.4124H92.6567V53.6099C92.6567 52.9201 92.0976 52.4236 91.4078 52.4236H87.4112V40.4964C87.4112 39.8066 86.9145 39.3098 86.2247 39.3098H83.7714C83.9999 38.5047 84.1558 37.6694 84.2335 36.8119H95.1546V65.4124Z" fill="#699DAA"/>
<path d="M66.1565 43.1094C66.3487 43.2209 66.5653 43.2783 66.7837 43.2783C66.8914 43.2783 66.9995 43.2644 67.1055 43.2362C67.4261 43.1506 67.6994 42.9412 67.8653 42.6538L69.8503 39.2152C70.0783 39.2587 70.3116 39.2823 70.5482 39.2823C70.7691 39.2823 70.9889 39.2608 71.2054 39.2221L73.2128 42.6989C73.4441 43.0995 73.8639 43.3235 74.2955 43.3235C74.5068 43.3235 74.721 43.2698 74.9173 43.1569L74.9394 43.1405C77.6212 41.5923 79.2886 38.6855 79.2975 35.5633H79.2936C79.2936 35.5633 79.2936 35.5528 79.2936 35.5448C79.2936 35.2052 79.1524 34.8804 78.9066 34.6451C78.6724 34.4208 78.3592 34.2931 78.0347 34.2986L74.082 34.2984C74.0051 34.0799 73.9086 33.8667 73.7902 33.6618C73.6724 33.4577 73.5359 33.2681 73.3848 33.0929L75.3598 29.6728C75.5261 29.3849 75.5708 29.0427 75.4839 28.7218C75.3969 28.401 75.1859 28.128 74.8971 27.9633C73.5857 27.2156 72.0939 26.8203 70.5826 26.8203C69.0522 26.8203 67.5356 27.2288 66.1981 28.0012L66.1776 28.0131C65.8902 28.1784 65.6805 28.4513 65.5945 28.7714C65.5086 29.0915 65.5533 29.4327 65.7191 29.7199L67.682 33.1196C67.3853 33.4721 67.1602 33.8735 67.0113 34.3005L63.0529 34.303C62.3632 34.3034 61.8043 34.8629 61.8047 35.5527C61.8056 37.0766 62.2121 38.5856 62.9804 39.9162C63.7473 41.2439 64.8455 42.3482 66.1565 43.1094ZM74.0734 36.7961L76.6785 36.7962C76.4073 38.1395 75.7063 39.3604 74.6898 40.2609L73.3784 37.9896C73.6805 37.6415 73.9161 37.2384 74.0734 36.7961ZM71.7524 35.8583C71.6661 36.1805 71.4594 36.4499 71.1705 36.6166C70.9778 36.7279 70.7684 36.7844 70.5484 36.7844C70.1023 36.7844 69.687 36.545 69.4645 36.1597C69.1201 35.5633 69.3252 34.7978 69.9216 34.4536C70.1144 34.3422 70.3237 34.2859 70.5437 34.2859C70.9898 34.2859 71.4051 34.5253 71.6276 34.9107C71.7944 35.1995 71.8387 35.5361 71.7524 35.8583ZM72.5046 29.6227L71.2178 31.8509C70.9973 31.8103 70.772 31.7879 70.5437 31.7879C70.306 31.7879 70.0694 31.8115 69.8371 31.8563L68.5665 29.6554C69.8371 29.2208 71.2391 29.2118 72.5046 29.6227ZM67.0193 36.7981C67.0938 37.0061 67.1868 37.2105 67.301 37.4085C67.4148 37.6054 67.5465 37.7887 67.6913 37.9588L66.3928 40.2084C65.9017 39.7677 65.479 39.2474 65.1439 38.667C64.8066 38.0829 64.5667 37.4514 64.4317 36.7997L67.0193 36.7981Z" fill="#699DAA"/>
<path d="M18.7069 0.00255849C18.7054 0.00412144 18.7038 0.00568872 18.7022 0.00726032C18.5074 0.0204599 18.3187 0.0808609 18.1524 0.183253C17.9861 0.285645 17.8472 0.426954 17.7478 0.59499C17.0763 1.69105 15.8279 2.38639 14.4659 2.38639C14.4612 2.38636 14.4565 2.38636 14.4518 2.38639H8.24064C8.11332 2.38362 7.98635 2.40108 7.8645 2.43811C6.14287 2.70793 4.8036 4.20534 4.8036 5.9974C4.8036 7.97743 6.43456 9.6084 8.41461 9.6084C8.45706 9.60751 8.49943 9.60437 8.54156 9.599C8.58368 9.60437 8.62605 9.60751 8.66851 9.6084H14.4518C14.4565 9.60843 14.4612 9.60843 14.4659 9.6084H22.8774C23.5565 9.6084 24.0811 10.1332 24.0811 10.8121C24.0811 11.4912 23.5565 12.0157 22.8774 12.0157C22.8461 12.0145 22.8147 12.0145 22.7834 12.0157H15.679C15.5582 12.0134 15.4377 12.0292 15.3216 12.0628H15.3169C12.1683 12.3184 9.62776 14.8638 9.62767 18.02C9.62579 18.1808 9.65616 18.3404 9.71698 18.4893C9.77781 18.6382 9.86786 18.7734 9.98181 18.887C10.0958 19.0005 10.2313 19.09 10.3805 19.1503C10.5296 19.2105 10.6893 19.2403 10.8502 19.2378C11.1686 19.2328 11.472 19.1018 11.6941 18.8736C11.9162 18.6453 12.0388 18.3384 12.035 18.02C12.0351 16.0865 13.6295 14.4947 15.7025 14.4325C14.9226 15.4343 14.4424 16.6669 14.4424 18.02C14.4405 18.1808 14.4709 18.3404 14.5317 18.4893C14.5925 18.6382 14.6826 18.7734 14.7965 18.887C14.9105 19.0005 15.046 19.09 15.1952 19.1503C15.3443 19.2105 15.504 19.2403 15.6649 19.2378C15.9833 19.2328 16.2867 19.1018 16.5088 18.8736C16.7309 18.6453 16.8535 18.3384 16.8497 18.02C16.8498 16.0477 18.5056 14.4231 20.6394 14.4231H22.7834C22.8022 14.4235 22.821 14.4235 22.8398 14.4231C22.8524 14.4233 22.8649 14.4233 22.8774 14.4231C24.8575 14.4231 26.4885 12.7921 26.4885 10.8121C26.4885 8.9702 25.0726 7.4446 23.2818 7.23868C23.1774 7.21188 23.0699 7.19923 22.9621 7.20107H14.5364C14.5129 7.20038 14.4894 7.20038 14.4659 7.20107C14.4612 7.20104 14.4565 7.20104 14.4518 7.20107H13.2387C12.5597 7.20107 12.035 6.67651 12.035 5.9974C12.035 5.31853 12.5597 4.79373 13.2387 4.79373H14.4518C14.4565 4.79375 14.4612 4.79375 14.4659 4.79373H14.4706C14.5609 4.79284 14.6508 4.7818 14.7386 4.76081C16.8099 4.67109 18.7222 3.61084 19.7978 1.85508C19.9184 1.66764 19.9845 1.4504 19.9889 1.22756C19.9933 1.00473 19.9358 0.785043 19.8227 0.592985C19.7096 0.400927 19.5454 0.244036 19.3484 0.13979C19.1514 0.0355442 18.9293 -0.0119638 18.7069 0.00255849ZM8.41461 4.79373H9.85336C9.71706 5.17228 9.62767 5.57451 9.62767 5.9974C9.62767 6.42184 9.7161 6.82133 9.85336 7.20107H8.66851C8.62778 7.199 8.58698 7.199 8.54626 7.20107H8.54156H8.53685C8.49613 7.199 8.45533 7.199 8.41461 7.20107C7.73558 7.20107 7.21094 6.67651 7.21094 5.9974C7.21094 5.31853 7.73558 4.79373 8.41461 4.79373ZM6.01668 21.6592C5.69745 21.6592 5.39131 21.7861 5.16559 22.0118C4.93986 22.2375 4.81303 22.5436 4.813 22.8629C4.813 45.1134 4.33152 55.6171 3.50589 61.8223C2.68026 68.0272 1.51488 70.012 0.0406537 75.514C-0.00685791 75.6922 -0.0128118 75.8788 0.0232502 76.0596C0.0593123 76.2405 0.136423 76.4106 0.248642 76.5569C0.36086 76.7032 0.505183 76.8217 0.670479 76.9034C0.835775 76.9851 1.01762 77.0277 1.202 77.028C1.202 77.028 35.5715 77.028 39.7194 77.028C43.8673 77.028 38.5177 72.7556 37.4155 61.8223C36.3134 50.8889 36.1084 45.1134 36.1084 22.8629C36.1084 22.5436 35.9815 22.2375 35.7558 22.0118C35.5301 21.7861 35.224 21.6592 34.9047 21.6592H6.01668ZM7.17803 24.0665H33.7434C33.7458 25.8782 33.7678 27.216 33.7763 28.8812H7.14511C7.15358 27.216 7.1756 25.8782 7.17803 24.0665ZM7.12631 31.2886H33.7951C33.9105 47.3031 34.3097 56.716 35.0317 62.142C35.7951 67.8794 36.9414 70.3883 38.1772 74.6207H2.74419C3.98005 70.3883 5.12631 67.8794 5.88973 62.142C6.61169 56.716 7.01096 47.3031 7.12631 31.2886Z" fill="#699DAA"/>
</svg>
