<svg width="65" height="85" viewBox="0 0 65 85" fill="none" xmlns="http://www.w3.org/2000/svg">
<path fill-rule="evenodd" clip-rule="evenodd" d="M50.1012 77.4319V75.1189C50.1012 73.8415 49.0657 72.8059 47.7883 72.8059H43.4676C47.5153 69.8928 49.7254 65.3674 49.1148 61.1798C48.8218 59.1826 48.0382 57.2892 46.8342 55.6691C46.5368 55.2725 46.0197 55.1096 45.5487 55.264C45.0777 55.4183 44.7574 55.8558 44.7525 56.3514C44.7328 56.4208 44.7051 56.4983 44.6866 56.5573C44.6565 56.6486 44.6345 56.7227 44.6241 56.762C44.5675 56.9933 44.5085 57.2165 44.4425 57.4431C44.3196 57.8782 44.1713 58.3056 43.9985 58.7234C43.7595 59.2914 43.4368 59.8204 43.0409 60.2927C43.7024 56.7227 43.6504 52.6171 41.357 49.3234C41.1342 49.0048 40.8937 48.6991 40.6365 48.4075C37.6468 45.1541 33.7412 42.8831 29.4348 41.8941C28.8563 41.7855 28.2885 42.1288 28.1158 42.6915C27.9431 43.2543 28.2207 43.8569 28.7606 44.0915C28.9665 44.318 29.1595 44.5558 29.3388 44.8039C29.4545 44.9542 29.5516 45.0826 29.621 45.1624C30.0803 45.6907 30.5071 46.2464 30.8989 46.8266C31.6111 47.8395 32.0707 49.0081 32.2393 50.2347C32.292 51.2127 32.087 52.1873 31.6448 53.0612C31.4449 51.3479 30.6325 49.7645 29.3573 48.6029C29.0239 48.3635 28.5886 48.3187 28.2135 48.4853C27.8384 48.6518 27.5796 49.0046 27.5335 49.4125C27.4931 49.7745 27.4641 50.1318 27.4364 50.4857C27.4047 51.2609 27.2884 52.0303 27.0894 52.7802C26.691 54.0234 26.0716 55.1846 25.261 56.208C23.5189 58.2332 22.4941 60.7769 22.3455 63.4442C22.3509 66.404 23.5451 69.2376 25.66 71.3083C26.213 71.8613 26.8153 72.3626 27.4595 72.8059H24.6585C23.3811 72.8059 22.3455 73.8415 22.3455 75.1189V77.4319H24.6585V75.1189H47.7883V77.4319H50.1012ZM34.6459 63.0752C33.0939 64.8396 32.1802 67.0746 32.0519 69.4209C32.082 72.2277 33.7231 72.7065 34.3684 72.7886C34.4155 72.7901 34.462 72.7934 34.5087 72.7968C34.5721 72.8013 34.636 72.8059 34.7026 72.8059C35.9473 72.8437 37.1925 72.7491 38.4172 72.5238C38.6115 71.1857 38.6786 68.9282 37.3244 67.4699C36.112 66.2254 35.1964 64.7231 34.6459 63.0752ZM27.0871 57.6062C25.6617 59.242 24.809 61.2982 24.6585 63.4627C24.6666 65.8067 25.6173 68.049 27.2964 69.6846C28.1083 70.4927 29.0456 71.1641 30.072 71.6726C29.8488 70.954 29.7357 70.2057 29.7366 69.4533C29.6765 63.8096 34.8969 59.4323 35.1201 59.2496C35.5562 58.8916 36.187 58.9006 36.6128 59.2708C37.0385 59.6411 37.1349 60.2645 36.841 60.7461C36.4211 61.4296 36.819 63.5425 39.0163 65.9075C40.3739 67.523 41.023 69.6176 40.817 71.7177C41.1814 71.5426 41.5331 71.342 41.8694 71.1175C44.5339 69.2856 47.4298 65.682 46.8226 61.5186C46.7138 60.7679 46.5178 60.0324 46.2386 59.3271C46.2027 59.4277 46.1634 59.5248 46.1229 59.622C45.2438 61.6583 43.6433 63.2979 41.6288 64.226C41.2125 64.4345 40.7117 64.3731 40.3581 64.0701C40.0046 63.767 39.8673 63.2815 40.0097 62.8382C41.1304 59.2542 41.9422 54.2316 39.4465 50.6465C39.2749 50.4007 39.0896 50.1648 38.8914 49.9398C37.1791 48.0485 35.0953 46.5304 32.7701 45.4804L32.8094 45.5382C33.7391 46.8654 34.3295 48.4 34.5291 50.0081C34.5982 51.6993 34.1941 53.3762 33.3622 54.8503C32.9548 55.7726 32.487 56.6669 31.9617 57.5276C31.9548 57.538 31.9051 57.6166 31.897 57.627C31.6122 58.0476 31.0863 58.2331 30.6006 58.0843C30.115 57.9355 29.7833 57.4873 29.7829 56.9794C29.7743 56.0868 29.6868 55.1967 29.5215 54.3195L29.5182 54.3006C29.5128 54.2706 29.5072 54.2389 29.5013 54.2057C29.4597 53.9734 29.4031 53.6661 29.3272 53.326C29.3145 53.3665 29.303 53.4093 29.2902 53.4498C28.812 54.9566 28.0657 56.3646 27.0871 57.6062Z" fill="#699DAA"/>
<path d="M47.6778 36.7241C47.4925 36.7241 47.3094 36.7646 47.1414 36.8428C46.9734 36.9209 46.8245 37.0349 46.7052 37.1766C45.9942 38.022 43.6743 40.9222 43.6743 42.7525C43.6743 43.8143 44.0961 44.8326 44.8469 45.5834C45.5977 46.3342 46.616 46.756 47.6778 46.756C48.7395 46.756 49.7578 46.3342 50.5086 45.5834C51.2594 44.8326 51.6812 43.8143 51.6812 42.7525C51.6812 40.9222 49.3621 38.022 48.651 37.1766C48.5315 37.0348 48.3825 36.9209 48.2144 36.8427C48.0463 36.7646 47.8632 36.7241 47.6778 36.7241ZM47.6778 44.2139C47.2903 44.2135 46.9188 44.0594 46.6449 43.7854C46.3709 43.5115 46.2168 43.14 46.2164 42.7525C46.5261 41.7709 47.0226 40.8584 47.6785 40.0652C48.3343 40.8582 48.8303 41.7708 49.1391 42.7525C49.1387 43.14 48.9846 43.5115 48.7107 43.7854C48.4367 44.0594 48.0652 44.2135 47.6778 44.2139Z" fill="#699DAA"/>
<path d="M60.7119 63.2507C61.7996 63.2497 62.8425 62.8172 63.6117 62.048C64.3808 61.2789 64.8134 60.236 64.8144 59.1482C64.8144 57.273 62.4376 54.3023 61.7083 53.4361C61.582 53.2974 61.4281 53.1866 61.2566 53.1108C61.085 53.035 60.8995 52.9958 60.7119 52.9958C60.5243 52.9958 60.3388 53.035 60.1672 53.1108C59.9956 53.1866 59.8418 53.2974 59.7155 53.4361C58.9869 54.3023 56.6094 57.273 56.6094 59.1482C56.6106 60.2359 57.0432 61.2787 57.8123 62.0478C58.5814 62.8169 59.6242 63.2495 60.7119 63.2507ZM60.7119 56.3986C61.3837 57.2115 61.8923 58.1463 62.2098 59.1519C62.2098 59.5492 62.052 59.9303 61.7711 60.2112C61.4902 60.4921 61.1092 60.6499 60.7119 60.6499C60.3146 60.6499 59.9336 60.4921 59.6526 60.2112C59.3717 59.9303 59.2139 59.5492 59.2139 59.1519C59.5318 58.1465 60.0404 57.2117 60.7119 56.3986Z" fill="#699DAA"/>
<path d="M16.0767 64.716C17.1645 64.715 18.2074 64.2825 18.9766 63.5133C19.7457 62.7442 20.1783 61.7013 20.1792 60.6135C20.1792 58.7383 17.8024 55.7676 17.0732 54.9014C16.9469 54.7627 16.793 54.6519 16.6214 54.5761C16.4498 54.5003 16.2643 54.4611 16.0767 54.4611C15.8892 54.4611 15.7036 54.5003 15.5321 54.5761C15.3605 54.6519 15.2066 54.7627 15.0803 54.9014C14.3518 55.7676 11.9742 58.7383 11.9742 60.6135C11.9754 61.7012 12.408 62.744 13.1771 63.5131C13.9463 64.2822 14.9891 64.7148 16.0767 64.716ZM16.0767 57.8639C16.7485 58.6767 17.2572 59.6116 17.5747 60.6172C17.5747 61.0145 17.4169 61.3955 17.136 61.6765C16.855 61.9574 16.474 62.1152 16.0767 62.1152C15.6795 62.1152 15.2984 61.9574 15.0175 61.6765C14.7366 61.3955 14.5788 61.0145 14.5788 60.6172C14.8966 59.6118 15.4052 58.6769 16.0767 57.8639Z" fill="#699DAA"/>
<path d="M32.4569 36.494C33.3601 37.3969 34.8242 37.3969 35.7274 36.494L38.9956 33.2257C39.8986 32.3225 39.8986 30.8584 38.9956 29.9552L34.867 25.8242C39.5198 20.3143 39.1827 12.1603 34.091 7.05325C33.6173 6.58159 33.1115 6.14338 32.5771 5.74179C29.9771 3.81495 26.7885 2.85102 23.5565 3.01479C21.9652 3.08629 20.3991 3.43867 18.9306 4.05563C18.3114 4.32265 17.7082 4.62539 17.1241 4.96232C16.6442 5.22715 16.1793 5.47811 15.7028 5.68281C15.1462 4.26533 14.43 2.91587 13.5679 1.66054C13.1364 1.02212 12.4153 0.640518 11.6447 0.642833H8.79047C7.91968 0.640135 7.12164 1.12818 6.7273 1.90456C6.40877 2.53574 6.40066 3.27887 6.70532 3.91685C5.95476 3.41031 5.22039 2.90377 4.52765 2.40185C3.82315 1.89632 2.89506 1.8273 2.12353 2.22306C1.35199 2.61882 0.86662 3.41287 0.866211 4.27999V7.11917C0.867835 7.87562 1.23925 8.58348 1.86079 9.01466C2.51652 9.46453 3.2162 9.93985 3.96676 10.4325C5.49225 11.448 7.17141 12.211 8.93966 12.6923C8.7419 12.9652 8.52101 13.237 8.28856 13.5157C8.15556 13.6765 8.02256 13.8349 7.89304 13.998C6.91891 15.3407 6.23409 16.871 5.8819 18.4921C4.4672 24.3257 6.96338 30.4075 12.0684 33.5653C17.1733 36.723 23.7298 36.2407 28.3178 32.3699L32.4569 36.494ZM15.128 16.0311C15.7143 15.0195 16.1345 13.9203 16.3724 12.7756C17.3241 12.5255 18.2503 12.1867 19.1387 11.7636C19.5643 11.5659 19.9749 11.3369 20.3854 11.1056C20.9135 10.7869 21.4688 10.516 22.045 10.296C24.164 9.58001 26.4981 9.92805 28.3161 11.2311C30.134 12.5342 31.2134 14.6328 31.2159 16.8695C31.2161 18.3087 30.7651 19.7118 29.9265 20.8814L26.7288 17.6837C25.8241 16.7853 24.364 16.7853 23.4594 17.6837L20.1796 20.9554C19.7445 21.3893 19.5 21.9785 19.5 22.593C19.5 23.2074 19.7445 23.7966 20.1796 24.2306L23.383 27.4271C22.2131 28.266 20.8096 28.717 19.37 28.7166H19.3631C17.5242 28.719 15.7608 27.9852 14.4665 26.6789C12.6385 24.8786 11.9691 22.2081 12.7318 19.7584C12.8825 19.1785 13.1436 18.6331 13.5009 18.1521C13.6524 17.9601 13.8108 17.7739 13.9634 17.5877C14.3993 17.1062 14.7891 16.5851 15.128 16.0311ZM34.0944 34.8587L29.2002 29.9644L29.1909 29.9517L25.9181 26.6789C25.9181 26.6731 25.9042 26.6708 25.8984 26.665L21.8172 22.593L25.0935 19.3236L29.1794 23.4095L32.4522 26.6823L37.3569 31.5858L34.0944 34.8587ZM11.6551 2.95581C12.3534 3.98009 12.9447 5.0733 13.4199 6.21827C13.3251 6.22636 13.2302 6.21827 13.1354 6.22636C12.846 6.24024 12.556 6.23792 12.2669 6.21942C12.1119 6.20786 11.9558 6.18704 11.8043 6.16622C11.5391 6.13277 11.2759 6.08568 11.0156 6.02513C10.9242 6.00431 10.8317 5.98003 10.7403 5.95459C10.3544 5.22024 9.91447 4.51555 9.42423 3.84631L8.79047 2.95581H11.6551ZM3.17919 7.11917L3.17109 4.27536C4.22003 5.03749 5.34645 5.80887 6.50756 6.56868C7.45549 7.20296 8.48847 7.69978 9.57573 8.04436C10.0745 8.20492 10.5843 8.32899 11.1011 8.41559C11.2619 8.44219 11.4226 8.44913 11.5834 8.46879C11.9329 8.51564 12.2845 8.5442 12.637 8.55437C12.6982 8.55437 12.7595 8.56825 12.8197 8.56825C13.0359 8.56825 13.2522 8.54396 13.4685 8.53009C13.6211 8.51968 13.7726 8.51968 13.9253 8.50233C14.359 8.45679 14.7893 8.3834 15.2136 8.2826H15.2391H15.2506C16.2999 7.99497 17.3032 7.56046 18.2309 6.99196C18.7414 6.69667 19.268 6.43026 19.8083 6.19398C21.0315 5.67908 22.336 5.38427 23.6618 5.32314C26.3544 5.18224 29.0121 5.98283 31.1789 7.58755C31.6274 7.92488 32.0525 8.29234 32.4511 8.68737C36.6428 12.8908 36.9784 19.5827 33.2282 24.1843L31.5814 22.5375C34.4445 18.8577 34.1177 13.6214 30.8193 10.3261C28.3239 7.84009 24.6365 6.9805 21.2991 8.10681C20.5889 8.36937 19.9044 8.69689 19.2544 9.0852C18.8947 9.28759 18.5362 9.48882 18.1638 9.66345C17.2088 10.1272 16.1983 10.4666 15.1569 10.6731C14.0973 10.8731 13.0167 10.938 11.9407 10.8662C11.5702 10.8424 11.2012 10.7991 10.8351 10.7367C8.83112 10.3957 6.92286 9.63122 5.23774 8.49424C4.4999 8.01776 3.8141 7.55054 3.17919 7.11917ZM11.1902 29.9517C8.34059 27.0936 7.182 22.9595 8.13127 19.0368C8.40573 17.7455 8.9405 16.5236 9.70294 15.4459L10.0672 15.0018C10.5721 14.4348 11.0134 13.8144 11.3833 13.1514C11.4365 13.1514 11.499 13.1514 11.5464 13.1607C11.7291 13.1757 11.9165 13.1815 12.1027 13.1896C12.334 13.2011 12.5653 13.2116 12.7965 13.2116C12.9943 13.2116 13.1932 13.2 13.3921 13.1919C13.5564 13.185 13.7194 13.1919 13.8836 13.1757C13.6932 13.7657 13.4388 14.333 13.125 14.8676C12.854 15.3003 12.5443 15.7075 12.1998 16.0843C12.0229 16.2924 11.8529 16.5006 11.6771 16.7169C11.1375 17.4261 10.7405 18.2332 10.5079 19.0935C9.50344 22.3562 10.3946 25.9067 12.8208 28.3084C14.5477 30.0502 16.8999 31.0285 19.3527 31.025H19.37C21.4228 31.0297 23.4179 30.3464 25.0368 29.0844L26.6837 30.73C22.0802 34.4713 15.3956 34.1355 11.1902 29.9517Z" fill="#699DAA"/>
<rect x="0.866211" y="77.432" width="63.9482" height="2.2225" rx="1.11125" fill="#699DAA"/>
<rect x="0.866211" y="82.1346" width="63.9482" height="2.2225" rx="1.11125" fill="#699DAA"/>
</svg>
