<svg width="136" height="22" viewBox="0 0 136 22" fill="none" xmlns="http://www.w3.org/2000/svg">
<path d="M10.577 16H7.433C7.033 14.896 6.473 13.328 5.753 11.296C5.049 9.264 4.585 7.928 4.361 7.288L3.569 5.08C3.441 4.728 3.345 4.48 3.281 4.336C3.233 4.176 3.217 4.096 3.233 4.096H3.161C3.257 4.688 3.305 5.552 3.305 6.688V16H0.497V0.159999H4.289C4.465 0.656 5.057 2.312 6.065 5.128C7.089 7.944 7.841 10.072 8.321 11.512C8.817 12.936 9.033 13.664 8.969 13.696H9.041L9.089 13.456C9.137 13.28 9.217 12.992 9.329 12.592C9.441 12.176 9.577 11.736 9.737 11.272C10.217 9.928 10.905 8 11.801 5.488C12.713 2.976 13.353 1.2 13.721 0.159999H17.513V16H14.705V6.688C14.705 6.176 14.713 5.704 14.729 5.272C14.761 4.84 14.785 4.536 14.801 4.36L14.849 4.096H14.777C14.745 4.16 14.673 4.368 14.561 4.72C14.465 5.056 14.369 5.352 14.273 5.608L13.649 7.288L10.577 16ZM27.4049 12.592H30.1889C30.1889 15.024 28.5969 16.24 25.4129 16.24C23.6049 16.24 22.3009 15.816 21.5009 14.968C20.7009 14.104 20.3009 12.624 20.3009 10.528C20.3009 8.368 20.7169 6.864 21.5489 6.016C22.3809 5.152 23.7169 4.72 25.5569 4.72C27.2369 4.72 28.4529 5.072 29.2049 5.776C29.9729 6.464 30.3569 7.664 30.3569 9.376C30.3569 10.192 30.2609 10.848 30.0689 11.344H23.1329C23.1809 12.352 23.3809 13.056 23.7329 13.456C24.0849 13.84 24.7249 14.032 25.6529 14.032C26.2449 14.032 26.6849 13.936 26.9729 13.744C27.2609 13.536 27.4049 13.152 27.4049 12.592ZM25.5329 6.928C24.6849 6.928 24.0849 7.104 23.7329 7.456C23.3969 7.808 23.2049 8.432 23.1569 9.328H27.5489V8.896C27.5489 8.16 27.4129 7.648 27.1409 7.36C26.8849 7.072 26.3489 6.928 25.5329 6.928ZM37.826 16H35.018V7.36H31.586V4.96H41.258V7.36H37.826V16ZM53.2019 13.888V16.096C52.0659 16.096 51.2419 15.952 50.7299 15.664C50.2339 15.36 49.9219 14.944 49.7939 14.416C49.5539 15.104 49.1779 15.584 48.6659 15.856C48.1539 16.112 47.4339 16.24 46.5059 16.24C43.7059 16.24 42.3059 15.128 42.3059 12.904C42.3059 11.992 42.5539 11.288 43.0499 10.792C43.5619 10.28 44.0339 9.976 44.4659 9.88C44.8979 9.784 45.5779 9.696 46.5059 9.616C46.6819 9.6 46.8179 9.584 46.9139 9.568C48.0659 9.472 48.9299 9.392 49.5059 9.328V8.368C49.5059 7.84 49.3539 7.472 49.0499 7.264C48.7619 7.04 48.2579 6.928 47.5379 6.928C47.3459 6.928 47.1939 6.968 47.0819 7.048C46.5059 7.064 46.1219 7.176 45.9299 7.384C45.7379 7.576 45.6419 7.904 45.6419 8.368H42.8579C42.8579 7.088 43.2259 6.16 43.9619 5.584C44.7139 5.008 45.9059 4.72 47.5379 4.72C49.2659 4.72 50.4899 5.024 51.2099 5.632C51.9459 6.24 52.3139 7.152 52.3139 8.368V12.904C52.3139 13.208 52.3939 13.448 52.5539 13.624C52.7299 13.8 52.9459 13.888 53.2019 13.888ZM46.7459 13.936C47.5779 13.936 48.1939 13.784 48.5939 13.48C48.9939 13.176 49.2499 12.64 49.3619 11.872C49.4259 11.648 49.4579 11.464 49.4579 11.32L46.8419 11.584C46.1859 11.648 45.7299 11.76 45.4739 11.92C45.2339 12.064 45.1139 12.36 45.1139 12.808C45.1139 13.24 45.2259 13.536 45.4499 13.696C45.6899 13.856 46.1219 13.936 46.7459 13.936ZM55.4563 11.536L55.9123 4.96H64.2643V16H61.4563V7.36H58.5523C58.5043 7.984 58.4563 8.68 58.4083 9.448C58.3603 10.2 58.3203 10.792 58.2883 11.224C58.2723 11.64 58.2403 12.112 58.1923 12.64C58.1443 13.152 58.0803 13.544 58.0003 13.816C57.9363 14.072 57.8323 14.36 57.6883 14.68C57.5603 14.984 57.4003 15.208 57.2083 15.352C57.0163 15.496 56.7683 15.64 56.4643 15.784C56.1603 15.912 55.8083 15.992 55.4083 16.024C55.0083 16.072 54.5363 16.096 53.9923 16.096V13.696C54.3123 13.696 54.5603 13.672 54.7363 13.624C54.9283 13.576 55.0723 13.448 55.1683 13.24C55.2643 13.032 55.3203 12.864 55.3363 12.736C55.3683 12.592 55.4003 12.28 55.4323 11.8C55.4483 11.688 55.4563 11.6 55.4563 11.536ZM67.6438 11.536L68.0998 4.96H76.4518V16H73.6438V7.36H70.7398C70.6918 7.984 70.6438 8.68 70.5958 9.448C70.5478 10.2 70.5078 10.792 70.4758 11.224C70.4598 11.64 70.4278 12.112 70.3798 12.64C70.3318 13.152 70.2678 13.544 70.1878 13.816C70.1238 14.072 70.0198 14.36 69.8758 14.68C69.7478 14.984 69.5878 15.208 69.3958 15.352C69.2038 15.496 68.9558 15.64 68.6518 15.784C68.3478 15.912 67.9958 15.992 67.5958 16.024C67.1958 16.072 66.7238 16.096 66.1798 16.096V13.696C66.4998 13.696 66.7478 13.672 66.9238 13.624C67.1158 13.576 67.2598 13.448 67.3558 13.24C67.4518 13.032 67.5078 12.864 67.5238 12.736C67.5558 12.592 67.5878 12.28 67.6198 11.8C67.6358 11.688 67.6438 11.6 67.6438 11.536ZM79.7593 19.36C80.2553 19.36 80.7433 19.072 81.2233 18.496C81.7033 17.936 82.0873 17.248 82.3753 16.432C79.7993 9.472 78.3833 5.648 78.1273 4.96H81.0553C81.8233 7.296 82.4073 9.048 82.8073 10.216C83.3993 12.264 83.6953 13.496 83.6953 13.912H83.7673C83.8633 13.016 84.1273 11.896 84.5593 10.552L84.6793 10.24C84.8393 9.776 85.1273 8.944 85.5433 7.744C85.9593 6.544 86.2793 5.616 86.5033 4.96H89.4313C88.8393 6.512 87.9993 8.72 86.9113 11.584C85.8393 14.432 85.1673 16.216 84.8953 16.936C83.6633 20.152 81.9513 21.76 79.7593 21.76V19.36ZM97.1448 16.24C96.2648 16.24 95.5688 16.104 95.0568 15.832C94.5608 15.56 94.1848 15.072 93.9288 14.368H93.8568C93.8728 14.528 93.8888 14.752 93.9048 15.04C93.9368 15.328 93.9608 15.592 93.9768 15.832C93.9928 16.056 94.0008 16.272 94.0008 16.48V21.76H91.1928V4.96H93.3768L93.6408 6.064L93.8808 6.76C94.1208 6.008 94.4968 5.48 95.0088 5.176C95.5368 4.872 96.2488 4.72 97.1448 4.72C98.7448 4.72 99.9288 5.176 100.697 6.088C101.465 6.984 101.849 8.448 101.849 10.48C101.849 12.528 101.465 14 100.697 14.896C99.9288 15.792 98.7448 16.24 97.1448 16.24ZM96.6408 14.032C97.5208 14.032 98.1368 13.784 98.4888 13.288C98.8568 12.776 99.0408 11.84 99.0408 10.48C99.0408 9.136 98.8648 8.208 98.5128 7.696C98.1608 7.184 97.5368 6.928 96.6408 6.928C95.7288 6.928 95.0648 7.176 94.6488 7.672C94.2488 8.152 94.0328 8.984 94.0008 10.168V10.48C94.0008 11.792 94.2008 12.712 94.6008 13.24C95.0168 13.768 95.6968 14.032 96.6408 14.032ZM107.103 7.36V16H104.295V4.96H111.927V7.36H107.103ZM117.913 9.928C118.121 9.56 118.409 9.04 118.777 8.368C119.161 7.696 119.505 7.088 119.809 6.544C120.113 5.984 120.393 5.456 120.649 4.96H124.033V16H121.225V10.888C121.225 10.312 121.241 9.768 121.273 9.256C121.321 8.728 121.369 8.344 121.417 8.104L121.489 7.744H121.393L120.961 8.728C119.841 11.096 118.593 13.52 117.217 16H113.833V4.96H116.641V10.12C116.641 10.696 116.617 11.248 116.569 11.776C116.537 12.304 116.497 12.688 116.449 12.928L116.401 13.288H116.497C116.785 12.312 117.257 11.192 117.913 9.928ZM129.257 16H126.281L128.705 11.92C127.329 11.488 126.641 10.36 126.641 8.536C126.641 7.208 126.977 6.28 127.649 5.752C128.337 5.224 129.449 4.96 130.985 4.96H135.785V16H132.977V12.232H131.489L129.257 16ZM131.081 10.312H132.977V7.264H131.081C130.473 7.264 130.049 7.368 129.809 7.576C129.569 7.768 129.449 8.152 129.449 8.728C129.449 9.32 129.577 9.736 129.833 9.976C130.089 10.2 130.505 10.312 131.081 10.312Z" fill="#F7F8F8"/>
</svg>
