<svg width="83" height="81" viewBox="0 0 83 81" fill="none" xmlns="http://www.w3.org/2000/svg">
<path d="M25.5221 28.2851C25.8066 28.2849 26.0794 28.1718 26.2805 27.9706C26.4817 27.7695 26.5948 27.4967 26.595 27.2122V23.1764C26.595 22.8918 26.4819 22.619 26.2807 22.4178C26.0795 22.2165 25.8066 22.1035 25.5221 22.1035C25.2375 22.1035 24.9647 22.2165 24.7635 22.4178C24.5623 22.619 24.4492 22.8918 24.4492 23.1764V27.2122C24.4492 27.3531 24.477 27.4926 24.5309 27.6228C24.5848 27.7529 24.6638 27.8712 24.7635 27.9708C24.8631 28.0705 24.9814 28.1495 25.1115 28.2034C25.2417 28.2573 25.3812 28.2851 25.5221 28.2851Z" fill="#699DAA"/>
<path d="M43.7553 54.5887C43.6963 54.3572 43.5617 54.1521 43.3729 54.0059C43.1841 53.8596 42.9519 53.7805 42.7131 53.7813H15.6799C15.441 53.7804 15.2088 53.8594 15.0199 54.0057C14.8311 54.152 14.6966 54.3572 14.6377 54.5887C14.33 55.7933 14.1745 57.0317 14.1748 58.275C14.1729 60.4055 14.6242 62.512 15.4988 64.4546C16.3733 66.3973 17.6512 68.1317 19.2474 69.5426C20.8437 70.9536 22.7218 72.0088 24.7572 72.6383C26.7925 73.2677 28.9385 73.457 31.0526 73.1935C33.1667 72.93 35.2005 72.2198 37.0191 71.11C38.8377 70.0002 40.3994 68.5163 41.6005 66.7567C42.8016 64.9971 43.6146 63.0021 43.9856 60.9042C44.3566 58.8063 44.277 56.6535 43.7522 54.5887H43.7553ZM29.198 71.1494C25.7847 71.1455 22.5123 69.7879 20.0987 67.3743C17.6852 64.9607 16.3275 61.6883 16.3236 58.275C16.3235 57.4873 16.3963 56.7013 16.5412 55.927H41.8554C42.201 57.7849 42.1332 59.6962 41.6567 61.525C41.1803 63.3538 40.3069 65.0551 39.0986 66.5083C37.8904 67.9614 36.3769 69.1305 34.6658 69.9327C32.9546 70.7348 31.0878 71.1502 29.198 71.1494Z" fill="#699DAA"/>
<path d="M81.2356 74.8282H77.2127V72.2227C77.2127 71.9381 77.0997 71.6652 76.8985 71.464C76.6973 71.2628 76.4244 71.1498 76.1398 71.1498H75.3747V24.6745H79.7802C80.0648 24.6745 80.3376 24.5614 80.5388 24.3602C80.74 24.159 80.8531 23.8861 80.8531 23.6016V19.9232C80.8529 19.6387 80.7398 19.3659 80.5387 19.1647C80.3375 18.9636 80.0647 18.8505 79.7802 18.8503H75.3747V14.4044C75.3746 14.1199 75.2615 13.8471 75.0603 13.6459C74.8591 13.4448 74.5863 13.3317 74.3019 13.3315H70.6235C70.339 13.3317 70.0662 13.4448 69.865 13.6459C69.6638 13.8471 69.5508 14.1199 69.5506 14.4044V18.8503H64.9158V13.8122C65.6738 13.7741 66.3868 13.441 66.9024 12.8841C67.4179 12.3272 67.6952 11.5907 67.6749 10.832C67.6545 10.0733 67.3382 9.35276 66.7935 8.82428C66.2488 8.2958 65.519 8.00138 64.7601 8.00397H51.8857C51.1248 7.99907 50.3924 8.29279 49.8458 8.82203C49.2991 9.35127 48.9818 10.0738 48.9621 10.8344C48.9423 11.595 49.2217 12.3331 49.7401 12.89C50.2586 13.4468 50.9748 13.7782 51.7349 13.8128V18.8503H50.0465C49.762 18.8505 49.4892 18.9636 49.2881 19.1647C49.0869 19.3659 48.9738 19.6387 48.9736 19.9232V23.6016C48.9736 23.8861 49.0867 24.159 49.2879 24.3602C49.4891 24.5614 49.762 24.6745 50.0465 24.6745H51.7349V52.3716C51.7342 53.6748 52.1201 54.949 52.8438 56.0328C53.5676 57.1167 54.5965 57.9614 55.8005 58.4603C57.0046 58.9591 58.3295 59.0895 59.6076 58.8351C60.8858 58.5807 62.0598 57.9528 62.981 57.0309C63.5967 56.4216 64.0848 55.6958 64.417 54.8958C64.7492 54.0959 64.9188 53.2378 64.9158 52.3716V24.6745H69.5506V71.1498H68.783C68.4985 71.15 68.2257 71.263 68.0246 71.4642C67.8234 71.6654 67.7103 71.9382 67.7102 72.2227V74.8282H37.8814C40.924 73.2341 43.4684 70.8324 45.2352 67.8868C47.002 64.9413 47.9229 61.5658 47.8968 58.131C47.8706 54.6963 46.8984 51.3352 45.0869 48.4169C43.2754 45.4985 40.6947 43.1359 37.6282 41.5883V38.0644C37.6282 38.0571 37.6282 38.051 37.6282 38.0436C37.6282 38.0362 37.6282 38.0301 37.6282 38.0228V33.9262C37.6282 33.9189 37.6282 33.9128 37.6282 33.9054C37.6282 33.898 37.6282 33.8919 37.6282 33.8846V29.7881C37.6282 29.7807 37.6282 29.7746 37.6282 29.7672C37.6282 29.7598 37.6282 29.7537 37.6282 29.7464V25.6499C37.6282 25.6425 37.6282 25.6364 37.6282 25.629C37.6282 25.6217 37.6282 25.6155 37.6282 25.6082V21.5117C37.6282 21.5043 37.6282 21.4982 37.6282 21.4908C37.6282 21.4835 37.6282 21.4773 37.6282 21.47V17.9663C38.3883 17.9317 39.1045 17.6004 39.623 17.0435C40.1415 16.4866 40.4208 15.7486 40.4011 14.9879C40.3813 14.2273 40.064 13.5048 39.5174 12.9756C38.9707 12.4463 38.2383 12.1526 37.4774 12.1575H20.9246C20.1676 12.1581 19.4407 12.4539 18.8985 12.9822C18.3563 13.5105 18.0416 14.2294 18.0213 14.9861C18.001 15.7429 18.2767 16.4777 18.7899 17.0342C19.303 17.5908 20.013 17.9252 20.7689 17.9663V41.5883C17.7025 43.1359 15.1218 45.4986 13.3104 48.417C11.499 51.3354 10.5268 54.6965 10.5007 58.1312C10.4746 61.5659 11.3956 64.9414 13.1624 67.887C14.9293 70.8325 17.4738 73.2342 20.5163 74.8282H10.733C10.4485 74.8284 10.1757 74.9414 9.97457 75.1426C9.7734 75.3438 9.66032 75.6166 9.66016 75.9011V79.5795C9.66032 79.8639 9.7734 80.1367 9.97457 80.3379C10.1757 80.5391 10.4485 80.6522 10.733 80.6523H81.2356C81.5201 80.6522 81.7929 80.5391 81.9941 80.3379C82.1953 80.1367 82.3083 79.8639 82.3085 79.5795V75.9011C82.3083 75.6166 82.1953 75.3438 81.9941 75.1426C81.7929 74.9414 81.5201 74.8284 81.2356 74.8282ZM71.6963 15.4772H73.229V18.8491H71.6963V15.4772ZM51.1194 10.916C51.1197 10.7129 51.2005 10.5182 51.3442 10.3745C51.4878 10.2309 51.6826 10.15 51.8857 10.1497H64.7601C64.9633 10.1497 65.1583 10.2304 65.302 10.3742C65.4457 10.5179 65.5264 10.7128 65.5264 10.916C65.5264 11.1193 65.4457 11.3142 65.302 11.4579C65.1583 11.6016 64.9633 11.6824 64.7601 11.6824H51.8857C51.6826 11.682 51.4878 11.6012 51.3442 11.4576C51.2005 11.3139 51.1197 11.1192 51.1194 10.916ZM53.8782 13.8281H62.7676V18.8503H53.8806L53.8782 13.8281ZM51.1194 20.9961H78.7074V22.5287H51.1194V20.9961ZM62.7676 26.6669H60.1621C59.8776 26.6669 59.6047 26.78 59.4035 26.9812C59.2023 27.1824 59.0892 27.4553 59.0892 27.7398C59.0892 28.0243 59.2023 28.2972 59.4035 28.4984C59.6047 28.6996 59.8776 28.8127 60.1621 28.8127H62.7701V30.8051H60.1621C59.8776 30.8051 59.6047 30.9182 59.4035 31.1194C59.2023 31.3206 59.0892 31.5935 59.0892 31.878C59.0892 32.1625 59.2023 32.4354 59.4035 32.6366C59.6047 32.8378 59.8776 32.9509 60.1621 32.9509H62.7701V34.9433H60.1621C59.8776 34.9433 59.6047 35.0564 59.4035 35.2576C59.2023 35.4588 59.0892 35.7316 59.0892 36.0162C59.0892 36.3007 59.2023 36.5736 59.4035 36.7748C59.6047 36.976 59.8776 37.0891 60.1621 37.0891H62.7701V39.0815H60.1621C59.8776 39.0815 59.6047 39.1946 59.4035 39.3958C59.2023 39.597 59.0892 39.8698 59.0892 40.1544C59.0892 40.4389 59.2023 40.7118 59.4035 40.913C59.6047 41.1142 59.8776 41.2273 60.1621 41.2273H62.7701V43.2197H60.1621C59.8776 43.2197 59.6047 43.3328 59.4035 43.534C59.2023 43.7352 59.0892 44.008 59.0892 44.2926C59.0892 44.5771 59.2023 44.85 59.4035 45.0512C59.6047 45.2524 59.8776 45.3655 60.1621 45.3655H62.7701V52.3716C62.7678 53.5497 62.2988 54.6789 61.4657 55.512C60.6327 56.345 59.5035 56.814 58.3253 56.8163C57.1469 56.815 56.0172 56.3463 55.1839 55.513C54.3506 54.6798 53.8819 53.55 53.8806 52.3716V24.6745H62.7701L62.7676 26.6669ZM71.6939 24.6745H73.2265V71.1498H71.6939V24.6745ZM69.8547 73.2955H75.0657V74.8282H69.8547V73.2955ZM20.1583 15.0696C20.1585 14.8664 20.2393 14.6715 20.3829 14.5279C20.5266 14.3842 20.7214 14.3034 20.9246 14.3032H37.4774C37.6807 14.3032 37.8756 14.384 38.0193 14.5277C38.163 14.6714 38.2438 14.8663 38.2438 15.0696C38.2438 15.2728 38.163 15.4677 38.0193 15.6114C37.8756 15.7551 37.6807 15.8359 37.4774 15.8359H20.9246C20.7214 15.8359 20.5265 15.7551 20.3828 15.6114C20.239 15.4677 20.1583 15.2728 20.1583 15.0696ZM12.6458 58.2754C12.6519 55.11 13.5631 52.0124 15.2719 49.3479C16.9807 46.6833 19.4157 44.563 22.2899 43.2369C22.4764 43.1512 22.6343 43.0138 22.7451 42.841C22.8558 42.6682 22.9146 42.4673 22.9146 42.2621V17.9816H35.4825V20.4186H32.8794C32.5949 20.4186 32.322 20.5316 32.1208 20.7328C31.9196 20.934 31.8066 21.2069 31.8066 21.4914C31.8066 21.776 31.9196 22.0489 32.1208 22.2501C32.322 22.4513 32.5949 22.5643 32.8794 22.5643H35.4825V24.5568H32.8794C32.5949 24.5568 32.322 24.6698 32.1208 24.871C31.9196 25.0722 31.8066 25.3451 31.8066 25.6296C31.8066 25.9142 31.9196 26.1871 32.1208 26.3883C32.322 26.5895 32.5949 26.7025 32.8794 26.7025H35.4825V28.695H32.8794C32.5949 28.695 32.322 28.808 32.1208 29.0092C31.9196 29.2104 31.8066 29.4833 31.8066 29.7678C31.8066 30.0524 31.9196 30.3252 32.1208 30.5265C32.322 30.7277 32.5949 30.8407 32.8794 30.8407H35.4825V32.8332H32.8794C32.5949 32.8332 32.322 32.9462 32.1208 33.1474C31.9196 33.3486 31.8066 33.6215 31.8066 33.906C31.8066 34.1906 31.9196 34.4634 32.1208 34.6646C32.322 34.8658 32.5949 34.9789 32.8794 34.9789H35.4825V36.9713H32.8794C32.5949 36.9713 32.322 37.0844 32.1208 37.2856C31.9196 37.4868 31.8066 37.7597 31.8066 38.0442C31.8066 38.3288 31.9196 38.6016 32.1208 38.8028C32.322 39.004 32.5949 39.1171 32.8794 39.1171H35.4825V42.2621C35.4826 42.4674 35.5415 42.6683 35.6523 42.8411C35.7632 43.0139 35.9213 43.1513 36.1078 43.2369C38.8077 44.477 41.124 46.421 42.8137 48.8647C44.5034 51.3085 45.5042 54.162 45.7112 57.1258C45.9181 60.0897 45.3235 63.0546 43.9898 65.7094C42.656 68.3643 40.6323 70.6112 38.131 72.2145C35.6297 73.8178 32.743 74.7183 29.7737 74.8215C26.8045 74.9248 23.8622 74.2269 21.2555 72.8012C18.6489 71.3755 16.474 69.2745 14.9591 66.7187C13.4443 64.1629 12.6452 61.2464 12.6458 58.2754ZM80.1628 78.5066H11.8059V76.9739H80.1628V78.5066Z" fill="#699DAA"/>
<path d="M26.4502 60.1387C25.8742 60.1387 25.3112 60.3095 24.8323 60.6294C24.3534 60.9494 23.9802 61.4042 23.7598 61.9363C23.5393 62.4684 23.4817 63.054 23.594 63.6189C23.7064 64.1837 23.9838 64.7026 24.391 65.1099C24.7983 65.5171 25.3172 65.7945 25.882 65.9069C26.4469 66.0192 27.0324 65.9615 27.5646 65.7411C28.0967 65.5207 28.5515 65.1475 28.8714 64.6686C29.1914 64.1897 29.3622 63.6267 29.3622 63.0507C29.3614 62.2787 29.0543 61.5384 28.5084 60.9925C27.9625 60.4466 27.2222 60.1395 26.4502 60.1387ZM26.4502 63.8171C26.2986 63.8171 26.1504 63.7721 26.0244 63.6879C25.8984 63.6037 25.8002 63.484 25.7422 63.344C25.6842 63.204 25.669 63.0499 25.6985 62.9012C25.7281 62.7526 25.8011 62.616 25.9083 62.5089C26.0154 62.4017 26.152 62.3287 26.3006 62.2991C26.4493 62.2696 26.6034 62.2847 26.7434 62.3427C26.8834 62.4007 27.0031 62.499 27.0873 62.625C27.1715 62.751 27.2165 62.8992 27.2165 63.0507C27.2163 63.2539 27.1355 63.4488 26.9919 63.5924C26.8482 63.7361 26.6533 63.8169 26.4502 63.8171Z" fill="#699DAA"/>
<path d="M36.5576 56.5371C35.9816 56.5371 35.4186 56.7079 34.9397 57.0279C34.4608 57.3479 34.0876 57.8027 33.8672 58.3348C33.6468 58.8669 33.5891 59.4524 33.7015 60.0173C33.8138 60.5822 34.0912 61.1011 34.4984 61.5083C34.9057 61.9156 35.4246 62.1929 35.9895 62.3053C36.5543 62.4176 37.1399 62.36 37.672 62.1396C38.2041 61.9192 38.6589 61.5459 38.9789 61.067C39.2989 60.5881 39.4696 60.0251 39.4696 59.4492C39.469 58.677 39.162 57.9367 38.616 57.3907C38.07 56.8448 37.3297 56.5378 36.5576 56.5371ZM36.5576 60.2155C36.406 60.2155 36.2578 60.1706 36.1318 60.0864C36.0058 60.0022 35.9076 59.8825 35.8496 59.7424C35.7916 59.6024 35.7764 59.4483 35.806 59.2997C35.8355 59.151 35.9085 59.0145 36.0157 58.9073C36.1229 58.8001 36.2594 58.7271 36.4081 58.6976C36.5567 58.668 36.7108 58.6832 36.8508 58.7412C36.9909 58.7992 37.1106 58.8974 37.1948 59.0234C37.279 59.1494 37.3239 59.2976 37.3239 59.4492C37.3237 59.6524 37.243 59.8472 37.0993 59.9909C36.9556 60.1346 36.7608 60.2153 36.5576 60.2155Z" fill="#699DAA"/>
<path d="M25.376 46.4043C25.376 46.9802 25.5468 47.5432 25.8667 48.0221C26.1867 48.501 26.6415 48.8742 27.1736 49.0946C27.7058 49.3151 28.2913 49.3727 28.8562 49.2604C29.421 49.148 29.9399 48.8707 30.3472 48.4634C30.7544 48.0561 31.0318 47.5373 31.1442 46.9724C31.2565 46.4075 31.1988 45.822 30.9784 45.2899C30.758 44.7577 30.3848 44.3029 29.9059 43.983C29.427 43.663 28.864 43.4922 28.288 43.4922C27.516 43.4932 26.7759 43.8003 26.23 44.3462C25.6841 44.8921 25.3769 45.6322 25.376 46.4043ZM28.288 45.6379C28.4396 45.6379 28.5878 45.6829 28.7138 45.7671C28.8398 45.8513 28.938 45.971 28.996 46.111C29.054 46.251 29.0692 46.4051 29.0396 46.5538C29.0101 46.7024 28.9371 46.839 28.8299 46.9461C28.7227 47.0533 28.5862 47.1263 28.4375 47.1559C28.2889 47.1854 28.1348 47.1703 27.9948 47.1122C27.8547 47.0542 27.7351 46.956 27.6509 46.83C27.5667 46.704 27.5217 46.5558 27.5217 46.4043C27.5219 46.2011 27.6027 46.0062 27.7463 45.8626C27.89 45.7189 28.0848 45.6381 28.288 45.6379Z" fill="#699DAA"/>
<path fill-rule="evenodd" clip-rule="evenodd" d="M19.9302 8.18574H21.4876C21.7589 8.18574 22.0192 8.29354 22.2111 8.48543C22.403 8.67732 22.5108 8.93758 22.5108 9.20895V13.3018C22.5108 13.5732 22.403 13.8335 22.2111 14.0253C22.0192 14.2172 21.7589 14.325 21.4876 14.325H19.9302C19.8368 14.5904 19.7324 14.8489 19.6171 15.1006L21.1878 16.6713C21.3796 16.8632 21.4873 17.1234 21.4873 17.3947C21.4873 17.666 21.3796 17.9262 21.1878 18.1181L18.1181 21.1878C17.9262 21.3796 17.666 21.4873 17.3947 21.4873C17.1234 21.4873 16.8632 21.3796 16.6713 21.1878L15.1006 19.6181C14.8479 19.7327 14.589 19.8381 14.325 19.9312V21.4876C14.325 21.7589 14.2172 22.0192 14.0253 22.2111C13.8335 22.403 13.5732 22.5108 13.3018 22.5108H9.20895C8.93758 22.5108 8.67732 22.403 8.48543 22.2111C8.29354 22.0192 8.18574 21.7589 8.18574 21.4876V19.9312C7.92175 19.8381 7.66287 19.7327 7.41014 19.6181L5.8395 21.1878C5.64762 21.3796 5.38741 21.4873 5.11609 21.4873C4.84476 21.4873 4.58455 21.3796 4.39267 21.1878L1.32302 18.1181C1.1312 17.9262 1.02344 17.666 1.02344 17.3947C1.02344 17.1234 1.1312 16.8632 1.32302 16.6713L2.89366 15.1006C2.77837 14.8489 2.67401 14.5904 2.58055 14.325H1.02322C0.751843 14.325 0.491583 14.2172 0.299693 14.0253C0.107802 13.8335 0 13.5732 0 13.3018V9.20895C0 8.93758 0.107802 8.67732 0.299693 8.48543C0.491583 8.29354 0.751843 8.18574 1.02322 8.18574H2.58055C2.67401 7.92038 2.77837 7.66185 2.89366 7.41014L1.32302 5.8395C1.1312 5.64762 1.02344 5.38741 1.02344 5.11609C1.02344 4.84476 1.1312 4.58455 1.32302 4.39267L4.39267 1.32302C4.58455 1.1312 4.84476 1.02344 5.11609 1.02344C5.38741 1.02344 5.64762 1.1312 5.8395 1.32302L7.41014 2.89263C7.66287 2.77803 7.92175 2.67264 8.18574 2.57953V1.02322C8.18574 0.751843 8.29354 0.491583 8.48543 0.299693C8.67732 0.107802 8.93758 0 9.20895 0H13.3018C13.5732 0 13.8335 0.107802 14.0253 0.299693C14.2172 0.491583 14.325 0.751843 14.325 1.02322V2.57953C14.589 2.67264 14.8479 2.77803 15.1006 2.89263L16.6713 1.32302C16.8632 1.1312 17.1234 1.02344 17.3947 1.02344C17.666 1.02344 17.9262 1.1312 18.1181 1.32302L21.1878 4.39267C21.3796 4.58455 21.4873 4.84476 21.4873 5.11609C21.4873 5.38741 21.3796 5.64762 21.1878 5.8395L19.6171 7.41014C19.7324 7.66185 19.8368 7.92038 19.9302 8.18574ZM19.173 12.2786H20.4643V10.2301H19.173C18.9462 10.2301 18.7259 10.1547 18.5466 10.0158C18.3673 9.87685 18.2393 9.68231 18.1826 9.46271C18.0261 8.85229 17.7894 8.26531 17.4786 7.7171C17.3682 7.52247 17.3246 7.297 17.3545 7.07523C17.3844 6.85346 17.4863 6.64762 17.6444 6.48924L19.0175 5.11609L17.3947 3.49326L16.0174 4.86642C15.8591 5.02452 15.6532 5.12633 15.4315 5.15627C15.2097 5.18621 14.9842 5.14262 14.7896 5.03218C14.2412 4.72152 13.6543 4.48448 13.044 4.32719C12.8245 4.27053 12.6301 4.14263 12.4912 3.96355C12.3524 3.78448 12.2768 3.56436 12.2766 3.33774V2.04643H10.2301V3.33774C10.2298 3.56436 10.1543 3.78448 10.0154 3.96355C9.87655 4.14263 9.68214 4.27053 9.46271 4.32719C8.8524 4.48448 8.26548 4.72152 7.7171 5.03218C7.52247 5.14262 7.297 5.18621 7.07523 5.15627C6.85346 5.12633 6.64762 5.02452 6.48924 4.86642L5.11609 3.49326L3.49326 5.11609L4.86642 6.49129C5.02452 6.64967 5.12633 6.85551 5.15627 7.07728C5.18621 7.29905 5.14262 7.52452 5.03218 7.71915C4.72142 8.26736 4.4847 8.85434 4.32821 9.46476C4.27151 9.68436 4.14346 9.87889 3.96417 10.0178C3.78489 10.1567 3.56454 10.2321 3.33774 10.2322H2.04643V12.2807H3.33774C3.56454 12.2807 3.78489 12.3561 3.96417 12.495C4.14346 12.6339 4.27151 12.8285 4.32821 13.0481C4.4847 13.6585 4.72142 14.2455 5.03218 14.7937C5.14262 14.9883 5.18621 15.2138 5.15627 15.4355C5.12633 15.6573 5.02452 15.8632 4.86642 16.0215L3.49326 17.3947L5.11609 19.0175L6.49129 17.6444C6.64967 17.4863 6.85551 17.3844 7.07728 17.3545C7.29905 17.3246 7.52452 17.3682 7.71915 17.4786C8.26752 17.7893 8.85445 18.0263 9.46476 18.1836C9.68419 18.2402 9.8786 18.3681 10.0175 18.5472C10.1564 18.7263 10.2319 18.9464 10.2322 19.173V20.4643H12.2807V19.173C12.2809 18.9464 12.3564 18.7263 12.4953 18.5472C12.6342 18.3681 12.8286 18.2402 13.0481 18.1836C13.6584 18.0263 14.2453 17.7893 14.7937 17.4786C14.9883 17.3682 15.2138 17.3246 15.4355 17.3545C15.6573 17.3844 15.8632 17.4863 16.0215 17.6444L17.3947 19.0175L19.0175 17.3947L17.6444 16.0195C17.4863 15.8611 17.3844 15.6553 17.3545 15.4335C17.3246 15.2117 17.3682 14.9863 17.4786 14.7916C17.7894 14.2434 18.0261 13.6564 18.1826 13.046C18.2393 12.8264 18.3673 12.6319 18.5466 12.493C18.7259 12.3541 18.9462 12.2787 19.173 12.2786ZM8.41259 7.00153C9.25392 6.43937 10.2431 6.13931 11.2549 6.13931C12.6113 6.14094 13.9117 6.68048 14.8708 7.63958C15.8299 8.59868 16.3694 9.89903 16.371 11.2554C16.371 12.2673 16.071 13.2564 15.5088 14.0977C14.9466 14.9391 14.1476 15.5948 13.2128 15.982C12.2779 16.3693 11.2493 16.4706 10.2568 16.2732C9.26441 16.0758 8.35281 15.5885 7.63731 14.873C6.92182 14.1575 6.43456 13.2459 6.23715 12.2535C6.03975 11.2611 6.14106 10.2324 6.52829 9.29756C6.91551 8.36271 7.57125 7.56369 8.41259 7.00153ZM9.54953 13.8077C10.0543 14.145 10.6478 14.3251 11.2549 14.3251C12.0691 14.3251 12.8498 14.0016 13.4255 13.426C14.0012 12.8503 14.3246 12.0695 14.3246 11.2554C14.3246 10.6483 14.1446 10.0548 13.8073 9.54999C13.47 9.04519 12.9905 8.65175 12.4296 8.41941C11.8687 8.18708 11.2515 8.12629 10.6561 8.24473C10.0606 8.36317 9.51366 8.65553 9.08436 9.08483C8.65506 9.51413 8.36271 10.0611 8.24426 10.6565C8.12582 11.252 8.18661 11.8692 8.41895 12.4301C8.65128 12.991 9.04473 13.4704 9.54953 13.8077Z" fill="#699DAA"/>
</svg>
