<svg width="74" height="74" viewBox="0 0 74 74" fill="none" xmlns="http://www.w3.org/2000/svg">
<path d="M1.23013 2.46026H72.5777C72.9039 2.46026 73.2168 2.33066 73.4475 2.09996C73.6782 1.86927 73.8078 1.55638 73.8078 1.23013C73.8078 0.903879 73.6782 0.590991 73.4475 0.360297C73.2168 0.129603 72.9039 0 72.5777 0H1.23013C0.90388 0 0.590991 0.129603 0.360297 0.360297C0.129603 0.590991 0 0.903879 0 1.23013C0 1.55638 0.129603 1.86927 0.360297 2.09996C0.590991 2.33066 0.90388 2.46026 1.23013 2.46026Z" fill="#699DAA"/>
<path d="M72.5777 4.91992H1.23013C0.90388 4.91992 0.590991 5.04952 0.360297 5.28022C0.129603 5.51091 0 5.8238 0 6.15005C0 6.4763 0.129603 6.78919 0.360297 7.01989C0.590991 7.25058 0.90388 7.38018 1.23013 7.38018H27.0629V13.5308H20.9122C20.586 13.5308 20.2731 13.6604 20.0424 13.8911C19.8117 14.1218 19.6821 14.4347 19.6821 14.761V15.9911H12.3013C10.9963 15.9911 9.74475 16.5095 8.82197 17.4323C7.89919 18.3551 7.38078 19.6066 7.38078 20.9116V34.4431C7.38078 34.7693 7.51039 35.0822 7.74108 35.3129C7.97177 35.5436 8.28466 35.6732 8.61091 35.6732H12.1303C12.4566 35.6732 12.7695 35.5436 13.0001 35.3129C13.2308 35.0822 13.3604 34.7693 13.3604 34.4431C13.3604 34.1168 13.2308 33.8039 13.0001 33.5732C12.7695 33.3425 12.4566 33.2129 12.1303 33.2129H9.84104V20.9116C9.84104 20.2591 10.1002 19.6333 10.5616 19.172C11.023 18.7106 11.6488 18.4514 12.3013 18.4514H19.6821V19.6815C19.6821 20.0077 19.8117 20.3206 20.0424 20.5513C20.2731 20.782 20.586 20.9116 20.9122 20.9116H40.5943C40.9206 20.9116 41.2334 20.782 41.4641 20.5513C41.6948 20.3206 41.8244 20.0077 41.8244 19.6815V18.4514H49.2052C49.8577 18.4514 50.4835 18.7106 50.9449 19.172C51.4063 19.6333 51.6655 20.2591 51.6655 20.9116V33.2129H49.2052C48.879 33.2129 48.5661 33.3425 48.3354 33.5732C48.1047 33.8039 47.9751 34.1168 47.9751 34.4431C47.9751 34.7693 48.1047 35.0822 48.3354 35.3129C48.5661 35.5436 48.879 35.6732 49.2052 35.6732H52.8956C53.2219 35.6732 53.5347 35.5436 53.7654 35.3129C53.9961 35.0822 54.1257 34.7693 54.1257 34.4431V20.9116C54.1257 19.6066 53.6073 18.3551 52.6846 17.4323C51.7618 16.5095 50.5102 15.9911 49.2052 15.9911H41.8244V14.761C41.8244 14.4347 41.6948 14.1218 41.4641 13.8911C41.2334 13.6604 40.9206 13.5308 40.5943 13.5308H34.4437V9.84044C34.4437 9.51419 34.314 9.2013 34.0834 8.97061C33.8527 8.73992 33.5398 8.61031 33.2135 8.61031C32.8873 8.61031 32.5744 8.73992 32.3437 8.97061C32.113 9.2013 31.9834 9.51419 31.9834 9.84044V13.5308H29.5231V7.38018H72.5777C72.9039 7.38018 73.2168 7.25058 73.4475 7.01989C73.6782 6.78919 73.8078 6.4763 73.8078 6.15005C73.8078 5.8238 73.6782 5.51091 73.4475 5.28022C73.2168 5.04952 72.9039 4.91992 72.5777 4.91992ZM33.2135 15.9911H39.3642V18.4514H22.1423V15.9911H33.2135Z" fill="#699DAA"/>
<path d="M33.9952 34.7231C33.8541 34.6084 33.6895 34.5262 33.5131 34.4822C33.3366 34.4382 33.1527 34.4335 32.9742 34.4684C31.5652 34.7566 30.2471 35.3823 29.1329 36.2918C28.0188 37.2013 27.1419 38.3675 26.5776 39.6903C25.4966 40.0911 24.5911 40.8594 24.0197 41.8607C23.4483 42.862 23.2473 44.0324 23.4521 45.1669C23.6569 46.3014 24.2543 47.3278 25.1396 48.0661C26.025 48.8045 27.142 49.2078 28.2948 49.2054C29.1611 49.201 30.0104 48.9653 30.7551 48.5227C31.4996 48.9655 32.3491 49.2012 33.2153 49.2054C34.4114 49.2069 35.5669 48.7718 36.465 47.9818C37.363 47.1918 37.9419 46.1012 38.0929 44.9146C38.2438 43.7281 37.9566 42.5273 37.2851 41.5376C36.6135 40.5478 35.6038 39.8372 34.4455 39.539V35.674C34.4454 35.492 34.405 35.3124 34.3271 35.148C34.2493 34.9835 34.1359 34.8384 33.9952 34.7231ZM31.9852 37.3679V39.544C31.5542 39.6548 31.1403 39.8241 30.7551 40.0471C30.3582 39.8142 29.9304 39.6386 29.4844 39.5255C30.1164 38.6013 30.9783 37.8577 31.9852 37.3679ZM25.8346 44.2849C25.8346 43.7983 25.9788 43.3226 26.2492 42.918C26.5195 42.5134 26.9038 42.1981 27.3533 42.0119C27.8029 41.8257 28.2975 41.777 28.7748 41.8719C29.252 41.9668 29.6904 42.2011 30.0345 42.5452C30.3786 42.8893 30.6129 43.3277 30.7078 43.8049C30.8027 44.2821 30.754 44.7768 30.5678 45.2264C30.3816 45.6759 30.0663 46.0602 29.6617 46.3305C29.2571 46.6008 28.7814 46.7451 28.2948 46.7451C27.6423 46.7451 27.0165 46.4859 26.5552 46.0245C26.0938 45.5632 25.8346 44.9374 25.8346 44.2849ZM35.6756 44.2849C35.6756 44.9374 35.4164 45.5632 34.955 46.0245C34.4936 46.4859 33.8678 46.7451 33.2153 46.7451C33.0015 46.7419 32.7892 46.7092 32.5843 46.648C32.9978 45.929 33.2154 45.1142 33.2154 44.2849C33.2154 43.4555 32.9978 42.6407 32.5843 41.9218C32.7892 41.8606 33.0015 41.8279 33.2153 41.8246C33.8678 41.8246 34.4936 42.0838 34.955 42.5452C35.4164 43.0066 35.6756 43.6324 35.6756 44.2849Z" fill="#699DAA"/>
<path d="M12.3017 65.1963C12.3017 64.4664 12.0852 63.7529 11.6797 63.146C11.2742 62.5391 10.6979 62.0661 10.0235 61.7868C9.34921 61.5075 8.6072 61.4344 7.89133 61.5768C7.17547 61.7192 6.5179 62.0706 6.00179 62.5868C5.48568 63.1029 5.1342 63.7604 4.99181 64.4763C4.84942 65.1922 4.9225 65.9342 5.20181 66.6085C5.48113 67.2828 5.95414 67.8592 6.56102 68.2647C7.1679 68.6702 7.8814 68.8866 8.61129 68.8866C9.59004 68.8866 10.5287 68.4978 11.2208 67.8057C11.9129 67.1137 12.3017 66.175 12.3017 65.1963ZM7.38116 65.1963C7.38116 64.953 7.45331 64.7151 7.58848 64.5128C7.72364 64.3105 7.91576 64.1529 8.14054 64.0598C8.36532 63.9667 8.61266 63.9423 8.85128 63.9898C9.0899 64.0372 9.30909 64.1544 9.48112 64.3264C9.65316 64.4985 9.77032 64.7176 9.81779 64.9563C9.86525 65.1949 9.84089 65.4422 9.74778 65.667C9.65468 65.8918 9.49701 66.0839 9.29472 66.2191C9.09242 66.3542 8.85459 66.4264 8.61129 66.4264C8.28504 66.4264 7.97215 66.2968 7.74146 66.0661C7.51076 65.8354 7.38116 65.5225 7.38116 65.1963Z" fill="#699DAA"/>
<path d="M36.9043 61.5059C36.1744 61.5059 35.4609 61.7223 34.854 62.1278C34.2471 62.5333 33.7741 63.1097 33.4948 63.784C33.2155 64.4583 33.1424 65.2003 33.2848 65.9162C33.4272 66.6321 33.7786 67.2896 34.2948 67.8057C34.8109 68.3219 35.4684 68.6733 36.1843 68.8157C36.9002 68.9581 37.6422 68.885 38.3165 68.6057C38.9908 68.3264 39.5672 67.8534 39.9727 67.2465C40.3782 66.6396 40.5947 65.9261 40.5947 65.1962C40.5947 64.2175 40.2058 63.2788 39.5138 62.5868C38.8217 61.8947 37.883 61.5059 36.9043 61.5059ZM36.9043 66.4264C36.661 66.4264 36.4231 66.3542 36.2208 66.2191C36.0185 66.0839 35.8609 65.8918 35.7678 65.667C35.6747 65.4422 35.6503 65.1949 35.6978 64.9563C35.7452 64.7176 35.8624 64.4985 36.0344 64.3264C36.2065 64.1544 36.4257 64.0372 36.6643 63.9898C36.9029 63.9423 37.1502 63.9667 37.375 64.0598C37.5998 64.1529 37.7919 64.3105 37.9271 64.5128C38.0622 64.7151 38.1344 64.953 38.1344 65.1962C38.1344 65.5225 38.0048 65.8354 37.7741 66.0661C37.5434 66.2968 37.2305 66.4264 36.9043 66.4264Z" fill="#699DAA"/>
<path d="M65.1969 56.585H51.6655V52.8946C51.6655 52.5683 51.5359 52.2554 51.3052 52.0247C51.0745 51.794 50.7616 51.6644 50.4353 51.6644H45.5148V47.974C45.5148 47.6478 45.3852 47.3349 45.1545 47.1042C44.9238 46.8735 44.6109 46.7439 44.2847 46.7439C43.9584 46.7439 43.6455 46.8735 43.4149 47.1042C43.1842 47.3349 43.0546 47.6478 43.0546 47.974V51.6644H18.452V27.0618H25.8327V30.7522C25.8327 31.0785 25.9623 31.3914 26.193 31.622C26.4237 31.8527 26.7366 31.9823 27.0629 31.9823H34.4436C34.7699 31.9823 35.0828 31.8527 35.3135 31.622C35.5442 31.3914 35.6738 31.0785 35.6738 30.7522V27.0618H43.0546V43.0535C43.0546 43.3798 43.1842 43.6927 43.4149 43.9234C43.6455 44.154 43.9584 44.2836 44.2847 44.2836C44.6109 44.2836 44.9238 44.154 45.1545 43.9234C45.3852 43.6927 45.5148 43.3798 45.5148 43.0535V25.8317C45.5148 25.5054 45.3852 25.1926 45.1545 24.9619C44.9238 24.7312 44.6109 24.6016 44.2847 24.6016H17.2218C16.8956 24.6016 16.5827 24.7312 16.352 24.9619C16.1213 25.1926 15.9917 25.5054 15.9917 25.8317V51.6644H11.0712C10.7449 51.6644 10.432 51.794 10.2013 52.0247C9.97064 52.2554 9.84104 52.5683 9.84104 52.8946V56.585H8.61091C6.32716 56.585 4.13694 57.4922 2.52208 59.107C0.907218 60.7219 0 62.9121 0 65.1959C0 67.4796 0.907218 69.6698 2.52208 71.2847C4.13694 72.8996 6.32716 73.8068 8.61091 73.8068H56.586C56.9122 73.8068 57.2251 73.6772 57.4558 73.4465C57.6865 73.2158 57.8161 72.9029 57.8161 72.5766C57.8161 72.2504 57.6865 71.9375 57.4558 71.7068C57.2251 71.4761 56.9122 71.3465 56.586 71.3465H42.918C43.6429 70.636 44.2367 69.8031 44.6722 68.8863H57.4286C58.0893 70.279 59.1117 71.4689 60.3891 72.3317C61.6665 73.1944 63.1521 73.6985 64.6908 73.7912C66.2295 73.8839 67.7649 73.5618 69.1367 72.8587C70.5084 72.1555 71.6663 71.097 72.4893 69.7936C73.3124 68.4903 73.7705 66.9898 73.8158 65.449C73.8612 63.9082 73.492 62.3835 72.747 61.034C72.002 59.6845 70.9083 58.5598 69.5803 57.7772C68.2522 56.9946 66.7384 56.5828 65.1969 56.585ZM33.2135 27.0618V29.5221H28.293V27.0618H33.2135ZM57.4286 61.5055H44.6722C44.2367 60.5886 43.6429 59.7558 42.918 59.0452H59.1828C58.458 59.7558 57.8641 60.5886 57.4286 61.5055ZM49.2052 56.585H46.745V54.1247H49.2052V56.585ZM44.2847 54.1247V56.585H41.8244V54.1247H44.2847ZM39.3642 54.1247V56.585H36.9039V54.1247H39.3642ZM29.1356 61.5055H16.3792C15.9437 60.5886 15.3499 59.7558 14.625 59.0452H30.8898C30.165 59.7558 29.5711 60.5886 29.1356 61.5055ZM22.1423 56.585V54.1247H24.6026V56.585H22.1423ZM31.9834 56.585V54.1247H34.4436V56.585H31.9834ZM29.5231 54.1247V56.585H27.0629V54.1247H29.5231ZM19.6821 54.1247V56.585H17.2218V54.1247H19.6821ZM12.3013 54.1247H14.7616V56.585H12.3013V54.1247ZM2.46026 65.1959C2.46026 63.9794 2.82099 62.7902 3.49683 61.7787C4.17267 60.7673 5.13327 59.9789 6.25716 59.5134C7.38104 59.0479 8.61773 58.9261 9.81084 59.1634C11.004 59.4007 12.0999 59.9865 12.9601 60.8467C13.8203 61.7069 14.4061 62.8028 14.6434 63.9959C14.8807 65.189 14.7589 66.4257 14.2934 67.5496C13.8278 68.6735 13.0395 69.6341 12.028 70.3099C11.0166 70.9858 9.8274 71.3465 8.61091 71.3465C6.98026 71.3446 5.41695 70.6959 4.2639 69.5429C3.11085 68.3898 2.46221 66.8265 2.46026 65.1959ZM14.625 71.3465C15.6033 70.4071 16.3411 69.246 16.7759 67.9614C17.2108 66.6767 17.33 65.3062 17.1234 63.9657H28.3914C28.2602 64.7806 28.2602 65.6112 28.3914 66.426H20.4829C20.1566 66.426 19.8438 66.5556 19.6131 66.7863C19.3824 67.017 19.2528 67.3299 19.2528 67.6561C19.2528 67.9824 19.3824 68.2953 19.6131 68.526C19.8438 68.7567 20.1566 68.8863 20.4829 68.8863H29.1356C29.5711 69.8031 30.165 70.636 30.8898 71.3465H14.625ZM30.7533 65.1959C30.7533 63.9794 31.114 62.7902 31.7898 61.7787C32.4657 60.7673 33.4263 59.9789 34.5502 59.5134C35.674 59.0479 36.9107 58.9261 38.1038 59.1634C39.297 59.4007 40.3929 59.9865 41.2531 60.8467C42.1133 61.7069 42.6991 62.8028 42.9364 63.9959C43.1737 65.189 43.0519 66.4257 42.5864 67.5496C42.1208 68.6735 41.3325 69.6341 40.321 70.3099C39.3096 70.9858 38.1204 71.3465 36.9039 71.3465C35.2733 71.3446 33.7099 70.6959 32.5569 69.5429C31.4039 68.3898 30.7552 66.8265 30.7533 65.1959ZM45.4164 66.426C45.5476 65.6112 45.5476 64.7806 45.4164 63.9657H56.6844C56.5532 64.7806 56.5532 65.6112 56.6844 66.426H45.4164ZM65.1969 71.3465C63.9804 71.3465 62.7913 70.9858 61.7798 70.3099C60.7683 69.6341 59.98 68.6735 59.5144 67.5496C59.0489 66.4257 58.9271 65.189 59.1644 63.9959C59.4018 62.8028 59.9876 61.7069 60.8477 60.8467C61.7079 59.9865 62.8039 59.4007 63.997 59.1634C65.1901 58.9261 66.4268 59.0479 67.5507 59.5134C68.6745 59.9789 69.6351 60.7673 70.311 61.7787C70.9868 62.7902 71.3476 63.9794 71.3476 65.1959C71.3456 66.8265 70.697 68.3898 69.5439 69.5429C68.3909 70.6959 66.8276 71.3446 65.1969 71.3465Z" fill="#699DAA"/>
<path d="M65.1972 61.5059C64.4673 61.5059 63.7538 61.7223 63.147 62.1278C62.5401 62.5333 62.0671 63.1097 61.7878 63.784C61.5084 64.4583 61.4354 65.2003 61.5777 65.9162C61.7201 66.6321 62.0716 67.2896 62.5877 67.8057C63.1038 68.3219 63.7614 68.6733 64.4773 68.8157C65.1931 68.9581 65.9351 68.885 66.6095 68.6057C67.2838 68.3264 67.8602 67.8534 68.2657 67.2465C68.6712 66.6396 68.8876 65.9261 68.8876 65.1962C68.8876 64.2175 68.4988 63.2788 67.8067 62.5868C67.1146 61.8947 66.176 61.5059 65.1972 61.5059ZM65.1972 66.4264C64.9539 66.4264 64.7161 66.3542 64.5138 66.2191C64.3115 66.0839 64.1538 65.8918 64.0607 65.667C63.9676 65.4422 63.9433 65.1949 63.9907 64.9563C64.0382 64.7176 64.1554 64.4985 64.3274 64.3264C64.4994 64.1544 64.7186 64.0372 64.9572 63.9898C65.1959 63.9423 65.4432 63.9667 65.668 64.0598C65.8928 64.1529 66.0849 64.3105 66.22 64.5128C66.3552 64.7151 66.4274 64.953 66.4274 65.1962C66.4274 65.5225 66.2978 65.8354 66.0671 66.0661C65.8364 66.2968 65.5235 66.4264 65.1972 66.4264Z" fill="#699DAA"/>
</svg>
