<svg width="102" height="73" viewBox="0 0 102 73" fill="none" xmlns="http://www.w3.org/2000/svg">
<path d="M98.2535 64.2897L95.2896 67.2535C94.9567 67.5865 94.9043 68.1081 95.1661 68.5003L97.142 71.4641C97.3258 71.7388 97.634 71.9038 97.964 71.9038H99.9399C100.393 71.9038 100.788 71.5955 100.898 71.1559L101.886 67.2041C101.971 66.8673 101.871 66.5116 101.626 66.2656L99.6504 64.2897C99.2641 63.9034 98.6397 63.9034 98.2535 64.2897ZM99.1683 69.9279H98.4925L97.2596 68.0775L98.9519 66.3851L99.8342 67.2674L99.1683 69.9279Z" fill="#699DAA"/>
<path d="M3.83939 28.3226L0.341797 31.8202C-0.0510992 32.2131 -0.11289 32.8287 0.196064 33.2916L2.52779 36.7892C2.74464 37.1133 3.10839 37.308 3.49779 37.308H5.82952C6.36465 37.308 6.82983 36.9442 6.96041 36.4254L8.12628 31.7619C8.22654 31.3644 8.10879 30.9447 7.81965 30.6544L5.48793 28.3226C5.03207 27.8668 4.29524 27.8668 3.83939 28.3226ZM4.91898 34.9762H4.12153L2.66653 32.7926L4.66366 30.7954L5.70477 31.8366L4.91898 34.9762Z" fill="#699DAA"/>
<path d="M72.7906 46.635H75.1223C75.5117 46.635 75.8755 46.4403 76.0923 46.1162L78.4241 42.6186C78.6852 42.2269 78.6852 41.7174 78.4241 41.3257L76.0923 37.8281C75.8755 37.5028 75.5117 37.3081 75.1223 37.3081H71.6247C71.3146 37.3081 71.0185 37.4305 70.8005 37.6497L68.4687 39.9814C68.0584 40.3918 68.0117 41.0412 68.3603 41.5052L71.8579 46.1687C72.0783 46.4625 72.4245 46.635 72.7906 46.635ZM72.1074 39.6398H74.4986L76.0527 41.9716L74.4986 44.3033H73.3735L70.832 40.9153L72.1074 39.6398Z" fill="#699DAA"/>
<path d="M4.88373 53.1261L9.54718 54.2919C9.64162 54.3153 9.73605 54.3269 9.83049 54.3269C10.3213 54.3269 10.7737 54.0145 10.9346 53.5295L12.1004 50.0319C12.2147 49.6903 12.1646 49.316 11.9652 49.0164L9.63346 45.5188C9.41661 45.1947 9.05286 45 8.66346 45H6.33173C5.88987 45 5.48648 45.2495 5.28828 45.6447L4.12242 47.9765C4.04197 48.1373 4 48.3169 4 48.4976V51.9952C4 52.5303 4.36375 52.9967 4.88373 53.1261ZM6.33173 48.7727L7.05223 47.3317H8.03972L9.70924 49.836L9.06452 51.7678L6.33173 51.0846V48.7727Z" fill="#699DAA"/>
<path d="M91.6585 54.9616C91.5546 54.8353 91.4239 54.7335 91.2759 54.6635C91.1279 54.5936 90.9662 54.5573 90.8024 54.5571V52.072C90.8026 51.8145 90.7124 51.565 90.5475 51.3668C90.3827 51.1686 90.1535 51.0342 89.8998 50.9869L86.3748 50.3268V47.9302C86.3749 47.7851 86.3463 47.6414 86.2907 47.5074C86.2351 47.3734 86.1536 47.2516 86.0508 47.149C85.948 47.0464 85.826 46.9651 85.6916 46.9096C85.5573 46.8541 85.4133 46.8256 85.2679 46.8257H80.8404C80.6582 46.8257 80.4788 46.8706 80.3181 46.9564C80.1575 47.0422 80.0205 47.1663 79.9195 47.3175L77.9164 50.3161L74.9557 51.3008C74.7926 51.3545 74.6444 51.4456 74.5229 51.5668C74.4015 51.688 74.3102 51.8359 74.2563 51.9987L73.4016 54.5571H73.0922C72.9284 54.5571 72.7666 54.5934 72.6186 54.6633C72.4706 54.7333 72.34 54.8351 72.2361 54.9615C72.1323 55.0879 72.0579 55.2357 72.0183 55.3942C71.9786 55.5528 71.9747 55.7182 72.0069 55.8784L74.1386 66.5137C73.6952 66.9222 73.3713 67.4432 73.2014 68.0211C73.0315 68.5989 73.022 69.212 73.174 69.7948C73.3259 70.3776 73.6336 70.9083 74.0641 71.3304C74.4946 71.7524 75.0319 72.0498 75.6186 72.191C76.2053 72.3322 76.8194 72.3118 77.3954 72.1321C77.9714 71.9523 78.4877 71.6198 78.8892 71.1702C79.2906 70.7206 79.5623 70.1706 79.675 69.579C79.7878 68.9874 79.7375 68.3763 79.5295 67.811H84.365C84.2338 68.1647 84.1648 68.5384 84.1611 68.9155C84.159 69.4653 84.294 70.0069 84.554 70.4916C84.814 70.9763 85.1908 71.3889 85.6504 71.6921C86.11 71.9953 86.638 72.1796 87.1868 72.2284C87.7356 72.2772 88.2879 72.189 88.794 71.9718C89.3001 71.7545 89.7441 71.415 90.086 70.9838C90.4278 70.5526 90.6567 70.0434 90.7522 69.5019C90.8476 68.9605 90.8065 68.4038 90.6326 67.8821C90.4587 67.3605 90.1574 66.8902 89.756 66.5137L91.8877 55.8784C91.9197 55.7182 91.9157 55.5529 91.8761 55.3944C91.8365 55.2358 91.7622 55.0881 91.6585 54.9616ZM76.1815 53.2218L78.5412 52.436L80.3453 53.3361L81.3354 51.3601L80.2431 50.8152L81.4327 49.0347H84.1611V53.4526H86.3748V52.5742L88.5886 52.9888V54.5571H75.7349L76.1815 53.2218ZM76.4128 70.02C76.1939 70.02 75.9799 69.9552 75.7979 69.8339C75.6158 69.7125 75.474 69.54 75.3902 69.3382C75.3064 69.1364 75.2845 68.9143 75.3272 68.7C75.3699 68.4858 75.4753 68.289 75.6301 68.1345C75.7849 67.98 75.9822 67.8749 76.1969 67.8322C76.4116 67.7896 76.6342 67.8115 76.8364 67.8951C77.0387 67.9787 77.2115 68.1203 77.3332 68.3019C77.4548 68.4835 77.5197 68.6971 77.5197 68.9155C77.5195 69.2084 77.4028 69.4892 77.1953 69.6963C76.9878 69.9034 76.7063 70.0198 76.4128 70.02ZM87.4817 70.02C87.2628 70.02 87.0488 69.9552 86.8668 69.8339C86.6847 69.7125 86.5429 69.54 86.4591 69.3382C86.3753 69.1364 86.3534 68.9143 86.3961 68.7C86.4388 68.4858 86.5442 68.289 86.699 68.1345C86.8538 67.98 87.0511 67.8749 87.2658 67.8322C87.4805 67.7896 87.703 67.8115 87.9053 67.8951C88.1076 67.9787 88.2804 68.1203 88.4021 68.3019C88.5237 68.4835 88.5886 68.6971 88.5886 68.9155C88.5884 69.2084 88.4717 69.4892 88.2642 69.6963C88.0567 69.9034 87.7752 70.0198 87.4817 70.02ZM89.0096 58.9751H84.1611V61.1841H88.567L87.6817 65.602H76.2129L75.7702 63.393H79.7335V61.1841H75.3276L74.4423 56.7661H89.4523L89.0096 58.9751Z" fill="#699DAA"/>
<path d="M72.9078 69.9519L63.5809 55.9615H56.6825L54.2586 51.1138L59.4805 47.6337C63.118 45.2099 65.2889 41.1515 65.2889 36.7795C65.2889 34.6483 64.7584 32.5265 63.7558 30.6413L55.4956 15.1562H50.1326V15.3218C50.0534 15.3008 49.9811 15.267 49.9006 15.2507L48.7114 10.4928H43.1374V7.71569C43.8545 6.89609 44.3033 5.83632 44.3033 4.66346C44.3033 2.09156 42.2118 0 39.6399 0H3.49805V2.33173H5.82978V6.99519H8.16151V2.33173H10.4932V6.99519H12.825V2.33173H15.1567V6.99519H17.4884V2.33173H20.1466L22.1519 8.34992V9.32692H3.49805V11.6586H24.4836V9.32692H36.1423V10.4928H30.5683L29.3802 15.2507C29.2998 15.267 29.2263 15.3008 29.1482 15.3218V15.1562H23.7853L15.5251 30.6424C14.5213 32.5253 13.9908 34.6483 13.9908 36.7795C13.9908 41.1515 16.1617 45.2087 19.7992 47.6337L23.0671 49.8116L15.3176 56.4523L13.1502 62.9567H8.48678L6.15505 69.9519H3.49805V72.2836H75.7817V69.9519H72.9078ZM61.6968 31.7383C62.5211 33.2866 62.9571 35.0296 62.9571 36.7795C62.9571 40.3692 61.1745 43.7024 58.1864 45.6937L53.1755 49.0351L44.3919 50.7921L47.5094 46.6346H50.3565L50.5652 46.5518C54.5524 44.9569 57.1278 41.1527 57.1278 36.8588V36.6175C57.1278 34.5504 56.5204 32.5474 55.3744 30.8266L50.8683 24.0681C52.4923 23.3383 53.6302 21.7131 53.6302 19.8197C53.6302 18.9663 53.3831 18.177 52.982 17.488H54.0966L61.6968 31.7383ZM30.0215 44.3029H29.3791C26.398 43.0181 24.4836 40.1197 24.4836 36.8588V36.6175C24.4836 35.0121 24.9546 33.4568 25.8453 32.1207L30.9821 24.4155C32.8464 24.1439 34.3445 22.7798 34.8108 20.9856H34.9764V39.1567L29.9399 44.1933L30.0215 44.3029ZM30.3129 17.488C31.5989 17.488 32.6447 18.5338 32.6447 19.8197C32.6447 21.1056 31.5989 22.1514 30.3129 22.1514C29.027 22.1514 27.9812 21.1056 27.9812 19.8197C27.9812 18.5338 29.027 17.488 30.3129 17.488ZM48.2976 24.4155L53.4344 32.1207C54.3251 33.4568 54.7961 35.0121 54.7961 36.6175V36.8588C54.7961 40.1197 52.8817 43.0181 49.9006 44.3029H49.2582L49.3398 44.1933L44.3033 39.1567V20.9856H44.4689C44.9352 22.7798 46.4345 24.1439 48.2976 24.4155ZM48.9668 17.488C50.2527 17.488 51.2985 18.5338 51.2985 19.8197C51.2985 21.1056 50.2527 22.1514 48.9668 22.1514C47.6808 22.1514 46.635 21.1056 46.635 19.8197C46.635 18.5338 47.6808 17.488 48.9668 17.488ZM41.9716 38.4735H37.3081V36.1418H41.9716V38.4735ZM41.9716 33.8101H37.3081V25.649H41.9716V33.8101ZM41.9716 23.3173H40.8057V17.488H41.9716V23.3173ZM38.474 15.1562V12.8245H40.8057V15.1562H38.474ZM37.3081 17.488H38.474V23.3173H37.3081V17.488ZM36.6249 40.8053H38.474V47.8005H40.8057V40.8053H42.6548L46.262 44.4125L40.2228 52.4639H39.0569L33.0177 44.4125L36.6249 40.8053ZM46.8904 12.8245L47.5363 15.4046C46.0323 15.8931 44.8699 17.1137 44.4689 18.6538H44.3033V15.1562H43.1374V12.8245H46.8904ZM41.9716 4.66346C41.9716 5.94941 40.9258 6.99519 39.6399 6.99519C38.3539 6.99519 37.3081 5.94941 37.3081 4.66346C37.3081 3.37751 38.3539 2.33173 39.6399 2.33173C40.9258 2.33173 41.9716 3.37751 41.9716 4.66346ZM35.6246 2.33173C35.2236 3.02076 34.9764 3.81005 34.9764 4.66346C34.9764 5.51687 35.2236 6.30616 35.6246 6.99519H24.1572L22.6019 2.33173H35.6246ZM38.474 9.32692H39.6399C40.0444 9.32692 40.4303 9.2593 40.8057 9.16136V10.4928H38.474V9.32692ZM36.1423 12.8245V15.1562H34.9764V18.6538H34.8108C34.4109 17.1126 33.2474 15.8931 31.7435 15.4046L32.3893 12.8245H36.1423ZM16.3226 36.7795C16.3226 35.0296 16.7586 33.2866 17.5829 31.7395L25.1831 17.488H26.2989C25.8966 18.177 25.6495 18.9663 25.6495 19.8197C25.6495 21.7131 26.7874 23.3383 28.4114 24.0681L23.9053 30.8266C22.7593 32.5474 22.1519 34.5504 22.1519 36.6175V36.8588C22.1519 41.1527 24.7273 44.9557 28.7145 46.5506L28.9232 46.6346H31.7703L34.8878 50.7909L26.1042 49.0339L21.0933 45.6926C18.1052 43.7013 16.3226 40.3692 16.3226 36.7795ZM10.168 65.2884H14.8314L17.1631 58.2932H21.492L24.6503 63.5571L26.6498 62.3574L22.8118 55.9615H19.4739L25.0817 51.1546L25.1948 51.2304L26.2919 51.4496L30.5088 57.7744L32.4488 56.4815L29.526 52.0967L36.9852 53.589L37.8911 54.7956H41.3886L42.2945 53.5878L51.9257 51.6606L54.6399 57.0901L50.6223 64.1226H47.8009V66.4543H51.9747L56.6382 58.2932H62.3334L70.1062 69.9519H8.6127L10.168 65.2884Z" fill="#699DAA"/>
</svg>
